<?xml version="1.0" encoding="UTF-8" standalone="no"?>
<!DOCTYPE svg PUBLIC "-//W3C//DTD SVG 1.1//EN" "http://www.w3.org/Graphics/SVG/1.1/DTD/svg11.dtd" >
<svg xmlns="http://www.w3.org/2000/svg" xmlns:xlink="http://www.w3.org/1999/xlink" version="1.1">
  <metadata>
  </metadata>
  <defs>
    <font horiz-adv-x="2048" id="Eight-DotOutline-Braille" >
      <font-face
        font-family="eight dot-outlinebraille"
        units-per-em="2048"
        unicode-range="U+0020-FFEE"
        font-weight="normal"
        font-stretch="normal"
        ascent="1638"
        descent="-410"
        underline-thickness="120"
        underline-position="-240"
         />
      <missing-glyph />
      <glyph glyph-name="nonmarkingreturn"  />
      <glyph
        glyph-name="uni2800"
        unicode="&#x2800;"
        horiz-adv-x="1470"
        d="M 320,1250 a 170,170 0,1,0 340,0 a 170,170 0,1,0 -340,0 m 20,0 a 150,150 0,1,1 300,0 a 150,150 0,1,1 -300,0 Z M 320,770 a 170,170 0,1,0 340,0 a 170,170 0,1,0 -340,0 m 20,0 a 150,150 0,1,1 300,0 a 150,150 0,1,1 -300,0 Z M 320,290 a 170,170 0,1,0 340,0 a 170,170 0,1,0 -340,0 m 20,0 a 150,150 0,1,1 300,0 a 150,150 0,1,1 -300,0 Z M 810,1250 a 170,170 0,1,0 340,0 a 170,170 0,1,0 -340,0 m 20,0 a 150,150 0,1,1 300,0 a 150,150 0,1,1 -300,0 Z M 810,770 a 170,170 0,1,0 340,0 a 170,170 0,1,0 -340,0 m 20,0 a 150,150 0,1,1 300,0 a 150,150 0,1,1 -300,0 Z M 810,290 a 170,170 0,1,0 340,0 a 170,170 0,1,0 -340,0 m 20,0 a 150,150 0,1,1 300,0 a 150,150 0,1,1 -300,0 Z M 320,-190 a 170,170 0,1,0 340,0 a 170,170 0,1,0 -340,0 m 20,0 a 150,150 0,1,1 300,0 a 150,150 0,1,1 -300,0 Z M 810,-190 a 170,170 0,1,0 340,0 a 170,170 0,1,0 -340,0 m 20,0 a 150,150 0,1,1 300,0 a 150,150 0,1,1 -300,0 Z " />
      <glyph
        glyph-name="uni2801"
        unicode="&#x2801;"
        horiz-adv-x="1470"
        d="M 320,1250 a 170,170 0,1,0 340,0 a 170,170 0,1,0 -340,0 Z M 320,770 a 170,170 0,1,0 340,0 a 170,170 0,1,0 -340,0 m 20,0 a 150,150 0,1,1 300,0 a 150,150 0,1,1 -300,0 Z M 320,290 a 170,170 0,1,0 340,0 a 170,170 0,1,0 -340,0 m 20,0 a 150,150 0,1,1 300,0 a 150,150 0,1,1 -300,0 Z M 810,1250 a 170,170 0,1,0 340,0 a 170,170 0,1,0 -340,0 m 20,0 a 150,150 0,1,1 300,0 a 150,150 0,1,1 -300,0 Z M 810,770 a 170,170 0,1,0 340,0 a 170,170 0,1,0 -340,0 m 20,0 a 150,150 0,1,1 300,0 a 150,150 0,1,1 -300,0 Z M 810,290 a 170,170 0,1,0 340,0 a 170,170 0,1,0 -340,0 m 20,0 a 150,150 0,1,1 300,0 a 150,150 0,1,1 -300,0 Z M 320,-190 a 170,170 0,1,0 340,0 a 170,170 0,1,0 -340,0 m 20,0 a 150,150 0,1,1 300,0 a 150,150 0,1,1 -300,0 Z M 810,-190 a 170,170 0,1,0 340,0 a 170,170 0,1,0 -340,0 m 20,0 a 150,150 0,1,1 300,0 a 150,150 0,1,1 -300,0 Z " />
      <glyph
        glyph-name="uni2802"
        unicode="&#x2802;"
        horiz-adv-x="1470"
        d="M 320,1250 a 170,170 0,1,0 340,0 a 170,170 0,1,0 -340,0 m 20,0 a 150,150 0,1,1 300,0 a 150,150 0,1,1 -300,0 Z M 320,770 a 170,170 0,1,0 340,0 a 170,170 0,1,0 -340,0 Z M 320,290 a 170,170 0,1,0 340,0 a 170,170 0,1,0 -340,0 m 20,0 a 150,150 0,1,1 300,0 a 150,150 0,1,1 -300,0 Z M 810,1250 a 170,170 0,1,0 340,0 a 170,170 0,1,0 -340,0 m 20,0 a 150,150 0,1,1 300,0 a 150,150 0,1,1 -300,0 Z M 810,770 a 170,170 0,1,0 340,0 a 170,170 0,1,0 -340,0 m 20,0 a 150,150 0,1,1 300,0 a 150,150 0,1,1 -300,0 Z M 810,290 a 170,170 0,1,0 340,0 a 170,170 0,1,0 -340,0 m 20,0 a 150,150 0,1,1 300,0 a 150,150 0,1,1 -300,0 Z M 320,-190 a 170,170 0,1,0 340,0 a 170,170 0,1,0 -340,0 m 20,0 a 150,150 0,1,1 300,0 a 150,150 0,1,1 -300,0 Z M 810,-190 a 170,170 0,1,0 340,0 a 170,170 0,1,0 -340,0 m 20,0 a 150,150 0,1,1 300,0 a 150,150 0,1,1 -300,0 Z " />
      <glyph
        glyph-name="uni2803"
        unicode="&#x2803;"
        horiz-adv-x="1470"
        d="M 320,1250 a 170,170 0,1,0 340,0 a 170,170 0,1,0 -340,0 Z M 320,770 a 170,170 0,1,0 340,0 a 170,170 0,1,0 -340,0 Z M 320,290 a 170,170 0,1,0 340,0 a 170,170 0,1,0 -340,0 m 20,0 a 150,150 0,1,1 300,0 a 150,150 0,1,1 -300,0 Z M 810,1250 a 170,170 0,1,0 340,0 a 170,170 0,1,0 -340,0 m 20,0 a 150,150 0,1,1 300,0 a 150,150 0,1,1 -300,0 Z M 810,770 a 170,170 0,1,0 340,0 a 170,170 0,1,0 -340,0 m 20,0 a 150,150 0,1,1 300,0 a 150,150 0,1,1 -300,0 Z M 810,290 a 170,170 0,1,0 340,0 a 170,170 0,1,0 -340,0 m 20,0 a 150,150 0,1,1 300,0 a 150,150 0,1,1 -300,0 Z M 320,-190 a 170,170 0,1,0 340,0 a 170,170 0,1,0 -340,0 m 20,0 a 150,150 0,1,1 300,0 a 150,150 0,1,1 -300,0 Z M 810,-190 a 170,170 0,1,0 340,0 a 170,170 0,1,0 -340,0 m 20,0 a 150,150 0,1,1 300,0 a 150,150 0,1,1 -300,0 Z " />
      <glyph
        glyph-name="uni2804"
        unicode="&#x2804;"
        horiz-adv-x="1470"
        d="M 320,1250 a 170,170 0,1,0 340,0 a 170,170 0,1,0 -340,0 m 20,0 a 150,150 0,1,1 300,0 a 150,150 0,1,1 -300,0 Z M 320,770 a 170,170 0,1,0 340,0 a 170,170 0,1,0 -340,0 m 20,0 a 150,150 0,1,1 300,0 a 150,150 0,1,1 -300,0 Z M 320,290 a 170,170 0,1,0 340,0 a 170,170 0,1,0 -340,0 Z M 810,1250 a 170,170 0,1,0 340,0 a 170,170 0,1,0 -340,0 m 20,0 a 150,150 0,1,1 300,0 a 150,150 0,1,1 -300,0 Z M 810,770 a 170,170 0,1,0 340,0 a 170,170 0,1,0 -340,0 m 20,0 a 150,150 0,1,1 300,0 a 150,150 0,1,1 -300,0 Z M 810,290 a 170,170 0,1,0 340,0 a 170,170 0,1,0 -340,0 m 20,0 a 150,150 0,1,1 300,0 a 150,150 0,1,1 -300,0 Z M 320,-190 a 170,170 0,1,0 340,0 a 170,170 0,1,0 -340,0 m 20,0 a 150,150 0,1,1 300,0 a 150,150 0,1,1 -300,0 Z M 810,-190 a 170,170 0,1,0 340,0 a 170,170 0,1,0 -340,0 m 20,0 a 150,150 0,1,1 300,0 a 150,150 0,1,1 -300,0 Z " />
      <glyph
        glyph-name="uni2805"
        unicode="&#x2805;"
        horiz-adv-x="1470"
        d="M 320,1250 a 170,170 0,1,0 340,0 a 170,170 0,1,0 -340,0 Z M 320,770 a 170,170 0,1,0 340,0 a 170,170 0,1,0 -340,0 m 20,0 a 150,150 0,1,1 300,0 a 150,150 0,1,1 -300,0 Z M 320,290 a 170,170 0,1,0 340,0 a 170,170 0,1,0 -340,0 Z M 810,1250 a 170,170 0,1,0 340,0 a 170,170 0,1,0 -340,0 m 20,0 a 150,150 0,1,1 300,0 a 150,150 0,1,1 -300,0 Z M 810,770 a 170,170 0,1,0 340,0 a 170,170 0,1,0 -340,0 m 20,0 a 150,150 0,1,1 300,0 a 150,150 0,1,1 -300,0 Z M 810,290 a 170,170 0,1,0 340,0 a 170,170 0,1,0 -340,0 m 20,0 a 150,150 0,1,1 300,0 a 150,150 0,1,1 -300,0 Z M 320,-190 a 170,170 0,1,0 340,0 a 170,170 0,1,0 -340,0 m 20,0 a 150,150 0,1,1 300,0 a 150,150 0,1,1 -300,0 Z M 810,-190 a 170,170 0,1,0 340,0 a 170,170 0,1,0 -340,0 m 20,0 a 150,150 0,1,1 300,0 a 150,150 0,1,1 -300,0 Z " />
      <glyph
        glyph-name="uni2806"
        unicode="&#x2806;"
        horiz-adv-x="1470"
        d="M 320,1250 a 170,170 0,1,0 340,0 a 170,170 0,1,0 -340,0 m 20,0 a 150,150 0,1,1 300,0 a 150,150 0,1,1 -300,0 Z M 320,770 a 170,170 0,1,0 340,0 a 170,170 0,1,0 -340,0 Z M 320,290 a 170,170 0,1,0 340,0 a 170,170 0,1,0 -340,0 Z M 810,1250 a 170,170 0,1,0 340,0 a 170,170 0,1,0 -340,0 m 20,0 a 150,150 0,1,1 300,0 a 150,150 0,1,1 -300,0 Z M 810,770 a 170,170 0,1,0 340,0 a 170,170 0,1,0 -340,0 m 20,0 a 150,150 0,1,1 300,0 a 150,150 0,1,1 -300,0 Z M 810,290 a 170,170 0,1,0 340,0 a 170,170 0,1,0 -340,0 m 20,0 a 150,150 0,1,1 300,0 a 150,150 0,1,1 -300,0 Z M 320,-190 a 170,170 0,1,0 340,0 a 170,170 0,1,0 -340,0 m 20,0 a 150,150 0,1,1 300,0 a 150,150 0,1,1 -300,0 Z M 810,-190 a 170,170 0,1,0 340,0 a 170,170 0,1,0 -340,0 m 20,0 a 150,150 0,1,1 300,0 a 150,150 0,1,1 -300,0 Z " />
      <glyph
        glyph-name="uni2807"
        unicode="&#x2807;"
        horiz-adv-x="1470"
        d="M 320,1250 a 170,170 0,1,0 340,0 a 170,170 0,1,0 -340,0 Z M 320,770 a 170,170 0,1,0 340,0 a 170,170 0,1,0 -340,0 Z M 320,290 a 170,170 0,1,0 340,0 a 170,170 0,1,0 -340,0 Z M 810,1250 a 170,170 0,1,0 340,0 a 170,170 0,1,0 -340,0 m 20,0 a 150,150 0,1,1 300,0 a 150,150 0,1,1 -300,0 Z M 810,770 a 170,170 0,1,0 340,0 a 170,170 0,1,0 -340,0 m 20,0 a 150,150 0,1,1 300,0 a 150,150 0,1,1 -300,0 Z M 810,290 a 170,170 0,1,0 340,0 a 170,170 0,1,0 -340,0 m 20,0 a 150,150 0,1,1 300,0 a 150,150 0,1,1 -300,0 Z M 320,-190 a 170,170 0,1,0 340,0 a 170,170 0,1,0 -340,0 m 20,0 a 150,150 0,1,1 300,0 a 150,150 0,1,1 -300,0 Z M 810,-190 a 170,170 0,1,0 340,0 a 170,170 0,1,0 -340,0 m 20,0 a 150,150 0,1,1 300,0 a 150,150 0,1,1 -300,0 Z " />
      <glyph
        glyph-name="uni2808"
        unicode="&#x2808;"
        horiz-adv-x="1470"
        d="M 320,1250 a 170,170 0,1,0 340,0 a 170,170 0,1,0 -340,0 m 20,0 a 150,150 0,1,1 300,0 a 150,150 0,1,1 -300,0 Z M 320,770 a 170,170 0,1,0 340,0 a 170,170 0,1,0 -340,0 m 20,0 a 150,150 0,1,1 300,0 a 150,150 0,1,1 -300,0 Z M 320,290 a 170,170 0,1,0 340,0 a 170,170 0,1,0 -340,0 m 20,0 a 150,150 0,1,1 300,0 a 150,150 0,1,1 -300,0 Z M 810,1250 a 170,170 0,1,0 340,0 a 170,170 0,1,0 -340,0 Z M 810,770 a 170,170 0,1,0 340,0 a 170,170 0,1,0 -340,0 m 20,0 a 150,150 0,1,1 300,0 a 150,150 0,1,1 -300,0 Z M 810,290 a 170,170 0,1,0 340,0 a 170,170 0,1,0 -340,0 m 20,0 a 150,150 0,1,1 300,0 a 150,150 0,1,1 -300,0 Z M 320,-190 a 170,170 0,1,0 340,0 a 170,170 0,1,0 -340,0 m 20,0 a 150,150 0,1,1 300,0 a 150,150 0,1,1 -300,0 Z M 810,-190 a 170,170 0,1,0 340,0 a 170,170 0,1,0 -340,0 m 20,0 a 150,150 0,1,1 300,0 a 150,150 0,1,1 -300,0 Z " />
      <glyph
        glyph-name="uni2809"
        unicode="&#x2809;"
        horiz-adv-x="1470"
        d="M 320,1250 a 170,170 0,1,0 340,0 a 170,170 0,1,0 -340,0 Z M 320,770 a 170,170 0,1,0 340,0 a 170,170 0,1,0 -340,0 m 20,0 a 150,150 0,1,1 300,0 a 150,150 0,1,1 -300,0 Z M 320,290 a 170,170 0,1,0 340,0 a 170,170 0,1,0 -340,0 m 20,0 a 150,150 0,1,1 300,0 a 150,150 0,1,1 -300,0 Z M 810,1250 a 170,170 0,1,0 340,0 a 170,170 0,1,0 -340,0 Z M 810,770 a 170,170 0,1,0 340,0 a 170,170 0,1,0 -340,0 m 20,0 a 150,150 0,1,1 300,0 a 150,150 0,1,1 -300,0 Z M 810,290 a 170,170 0,1,0 340,0 a 170,170 0,1,0 -340,0 m 20,0 a 150,150 0,1,1 300,0 a 150,150 0,1,1 -300,0 Z M 320,-190 a 170,170 0,1,0 340,0 a 170,170 0,1,0 -340,0 m 20,0 a 150,150 0,1,1 300,0 a 150,150 0,1,1 -300,0 Z M 810,-190 a 170,170 0,1,0 340,0 a 170,170 0,1,0 -340,0 m 20,0 a 150,150 0,1,1 300,0 a 150,150 0,1,1 -300,0 Z " />
      <glyph
        glyph-name="uni280A"
        unicode="&#x280a;"
        horiz-adv-x="1470"
        d="M 320,1250 a 170,170 0,1,0 340,0 a 170,170 0,1,0 -340,0 m 20,0 a 150,150 0,1,1 300,0 a 150,150 0,1,1 -300,0 Z M 320,770 a 170,170 0,1,0 340,0 a 170,170 0,1,0 -340,0 Z M 320,290 a 170,170 0,1,0 340,0 a 170,170 0,1,0 -340,0 m 20,0 a 150,150 0,1,1 300,0 a 150,150 0,1,1 -300,0 Z M 810,1250 a 170,170 0,1,0 340,0 a 170,170 0,1,0 -340,0 Z M 810,770 a 170,170 0,1,0 340,0 a 170,170 0,1,0 -340,0 m 20,0 a 150,150 0,1,1 300,0 a 150,150 0,1,1 -300,0 Z M 810,290 a 170,170 0,1,0 340,0 a 170,170 0,1,0 -340,0 m 20,0 a 150,150 0,1,1 300,0 a 150,150 0,1,1 -300,0 Z M 320,-190 a 170,170 0,1,0 340,0 a 170,170 0,1,0 -340,0 m 20,0 a 150,150 0,1,1 300,0 a 150,150 0,1,1 -300,0 Z M 810,-190 a 170,170 0,1,0 340,0 a 170,170 0,1,0 -340,0 m 20,0 a 150,150 0,1,1 300,0 a 150,150 0,1,1 -300,0 Z " />
      <glyph
        glyph-name="uni280B"
        unicode="&#x280b;"
        horiz-adv-x="1470"
        d="M 320,1250 a 170,170 0,1,0 340,0 a 170,170 0,1,0 -340,0 Z M 320,770 a 170,170 0,1,0 340,0 a 170,170 0,1,0 -340,0 Z M 320,290 a 170,170 0,1,0 340,0 a 170,170 0,1,0 -340,0 m 20,0 a 150,150 0,1,1 300,0 a 150,150 0,1,1 -300,0 Z M 810,1250 a 170,170 0,1,0 340,0 a 170,170 0,1,0 -340,0 Z M 810,770 a 170,170 0,1,0 340,0 a 170,170 0,1,0 -340,0 m 20,0 a 150,150 0,1,1 300,0 a 150,150 0,1,1 -300,0 Z M 810,290 a 170,170 0,1,0 340,0 a 170,170 0,1,0 -340,0 m 20,0 a 150,150 0,1,1 300,0 a 150,150 0,1,1 -300,0 Z M 320,-190 a 170,170 0,1,0 340,0 a 170,170 0,1,0 -340,0 m 20,0 a 150,150 0,1,1 300,0 a 150,150 0,1,1 -300,0 Z M 810,-190 a 170,170 0,1,0 340,0 a 170,170 0,1,0 -340,0 m 20,0 a 150,150 0,1,1 300,0 a 150,150 0,1,1 -300,0 Z " />
      <glyph
        glyph-name="uni280C"
        unicode="&#x280c;"
        horiz-adv-x="1470"
        d="M 320,1250 a 170,170 0,1,0 340,0 a 170,170 0,1,0 -340,0 m 20,0 a 150,150 0,1,1 300,0 a 150,150 0,1,1 -300,0 Z M 320,770 a 170,170 0,1,0 340,0 a 170,170 0,1,0 -340,0 m 20,0 a 150,150 0,1,1 300,0 a 150,150 0,1,1 -300,0 Z M 320,290 a 170,170 0,1,0 340,0 a 170,170 0,1,0 -340,0 Z M 810,1250 a 170,170 0,1,0 340,0 a 170,170 0,1,0 -340,0 Z M 810,770 a 170,170 0,1,0 340,0 a 170,170 0,1,0 -340,0 m 20,0 a 150,150 0,1,1 300,0 a 150,150 0,1,1 -300,0 Z M 810,290 a 170,170 0,1,0 340,0 a 170,170 0,1,0 -340,0 m 20,0 a 150,150 0,1,1 300,0 a 150,150 0,1,1 -300,0 Z M 320,-190 a 170,170 0,1,0 340,0 a 170,170 0,1,0 -340,0 m 20,0 a 150,150 0,1,1 300,0 a 150,150 0,1,1 -300,0 Z M 810,-190 a 170,170 0,1,0 340,0 a 170,170 0,1,0 -340,0 m 20,0 a 150,150 0,1,1 300,0 a 150,150 0,1,1 -300,0 Z " />
      <glyph
        glyph-name="uni280D"
        unicode="&#x280d;"
        horiz-adv-x="1470"
        d="M 320,1250 a 170,170 0,1,0 340,0 a 170,170 0,1,0 -340,0 Z M 320,770 a 170,170 0,1,0 340,0 a 170,170 0,1,0 -340,0 m 20,0 a 150,150 0,1,1 300,0 a 150,150 0,1,1 -300,0 Z M 320,290 a 170,170 0,1,0 340,0 a 170,170 0,1,0 -340,0 Z M 810,1250 a 170,170 0,1,0 340,0 a 170,170 0,1,0 -340,0 Z M 810,770 a 170,170 0,1,0 340,0 a 170,170 0,1,0 -340,0 m 20,0 a 150,150 0,1,1 300,0 a 150,150 0,1,1 -300,0 Z M 810,290 a 170,170 0,1,0 340,0 a 170,170 0,1,0 -340,0 m 20,0 a 150,150 0,1,1 300,0 a 150,150 0,1,1 -300,0 Z M 320,-190 a 170,170 0,1,0 340,0 a 170,170 0,1,0 -340,0 m 20,0 a 150,150 0,1,1 300,0 a 150,150 0,1,1 -300,0 Z M 810,-190 a 170,170 0,1,0 340,0 a 170,170 0,1,0 -340,0 m 20,0 a 150,150 0,1,1 300,0 a 150,150 0,1,1 -300,0 Z " />
      <glyph
        glyph-name="uni280E"
        unicode="&#x280e;"
        horiz-adv-x="1470"
        d="M 320,1250 a 170,170 0,1,0 340,0 a 170,170 0,1,0 -340,0 m 20,0 a 150,150 0,1,1 300,0 a 150,150 0,1,1 -300,0 Z M 320,770 a 170,170 0,1,0 340,0 a 170,170 0,1,0 -340,0 Z M 320,290 a 170,170 0,1,0 340,0 a 170,170 0,1,0 -340,0 Z M 810,1250 a 170,170 0,1,0 340,0 a 170,170 0,1,0 -340,0 Z M 810,770 a 170,170 0,1,0 340,0 a 170,170 0,1,0 -340,0 m 20,0 a 150,150 0,1,1 300,0 a 150,150 0,1,1 -300,0 Z M 810,290 a 170,170 0,1,0 340,0 a 170,170 0,1,0 -340,0 m 20,0 a 150,150 0,1,1 300,0 a 150,150 0,1,1 -300,0 Z M 320,-190 a 170,170 0,1,0 340,0 a 170,170 0,1,0 -340,0 m 20,0 a 150,150 0,1,1 300,0 a 150,150 0,1,1 -300,0 Z M 810,-190 a 170,170 0,1,0 340,0 a 170,170 0,1,0 -340,0 m 20,0 a 150,150 0,1,1 300,0 a 150,150 0,1,1 -300,0 Z " />
      <glyph
        glyph-name="uni280F"
        unicode="&#x280f;"
        horiz-adv-x="1470"
        d="M 320,1250 a 170,170 0,1,0 340,0 a 170,170 0,1,0 -340,0 Z M 320,770 a 170,170 0,1,0 340,0 a 170,170 0,1,0 -340,0 Z M 320,290 a 170,170 0,1,0 340,0 a 170,170 0,1,0 -340,0 Z M 810,1250 a 170,170 0,1,0 340,0 a 170,170 0,1,0 -340,0 Z M 810,770 a 170,170 0,1,0 340,0 a 170,170 0,1,0 -340,0 m 20,0 a 150,150 0,1,1 300,0 a 150,150 0,1,1 -300,0 Z M 810,290 a 170,170 0,1,0 340,0 a 170,170 0,1,0 -340,0 m 20,0 a 150,150 0,1,1 300,0 a 150,150 0,1,1 -300,0 Z M 320,-190 a 170,170 0,1,0 340,0 a 170,170 0,1,0 -340,0 m 20,0 a 150,150 0,1,1 300,0 a 150,150 0,1,1 -300,0 Z M 810,-190 a 170,170 0,1,0 340,0 a 170,170 0,1,0 -340,0 m 20,0 a 150,150 0,1,1 300,0 a 150,150 0,1,1 -300,0 Z " />
      <glyph
        glyph-name="uni2810"
        unicode="&#x2810;"
        horiz-adv-x="1470"
        d="M 320,1250 a 170,170 0,1,0 340,0 a 170,170 0,1,0 -340,0 m 20,0 a 150,150 0,1,1 300,0 a 150,150 0,1,1 -300,0 Z M 320,770 a 170,170 0,1,0 340,0 a 170,170 0,1,0 -340,0 m 20,0 a 150,150 0,1,1 300,0 a 150,150 0,1,1 -300,0 Z M 320,290 a 170,170 0,1,0 340,0 a 170,170 0,1,0 -340,0 m 20,0 a 150,150 0,1,1 300,0 a 150,150 0,1,1 -300,0 Z M 810,1250 a 170,170 0,1,0 340,0 a 170,170 0,1,0 -340,0 m 20,0 a 150,150 0,1,1 300,0 a 150,150 0,1,1 -300,0 Z M 810,770 a 170,170 0,1,0 340,0 a 170,170 0,1,0 -340,0 Z M 810,290 a 170,170 0,1,0 340,0 a 170,170 0,1,0 -340,0 m 20,0 a 150,150 0,1,1 300,0 a 150,150 0,1,1 -300,0 Z M 320,-190 a 170,170 0,1,0 340,0 a 170,170 0,1,0 -340,0 m 20,0 a 150,150 0,1,1 300,0 a 150,150 0,1,1 -300,0 Z M 810,-190 a 170,170 0,1,0 340,0 a 170,170 0,1,0 -340,0 m 20,0 a 150,150 0,1,1 300,0 a 150,150 0,1,1 -300,0 Z " />
      <glyph
        glyph-name="uni2811"
        unicode="&#x2811;"
        horiz-adv-x="1470"
        d="M 320,1250 a 170,170 0,1,0 340,0 a 170,170 0,1,0 -340,0 Z M 320,770 a 170,170 0,1,0 340,0 a 170,170 0,1,0 -340,0 m 20,0 a 150,150 0,1,1 300,0 a 150,150 0,1,1 -300,0 Z M 320,290 a 170,170 0,1,0 340,0 a 170,170 0,1,0 -340,0 m 20,0 a 150,150 0,1,1 300,0 a 150,150 0,1,1 -300,0 Z M 810,1250 a 170,170 0,1,0 340,0 a 170,170 0,1,0 -340,0 m 20,0 a 150,150 0,1,1 300,0 a 150,150 0,1,1 -300,0 Z M 810,770 a 170,170 0,1,0 340,0 a 170,170 0,1,0 -340,0 Z M 810,290 a 170,170 0,1,0 340,0 a 170,170 0,1,0 -340,0 m 20,0 a 150,150 0,1,1 300,0 a 150,150 0,1,1 -300,0 Z M 320,-190 a 170,170 0,1,0 340,0 a 170,170 0,1,0 -340,0 m 20,0 a 150,150 0,1,1 300,0 a 150,150 0,1,1 -300,0 Z M 810,-190 a 170,170 0,1,0 340,0 a 170,170 0,1,0 -340,0 m 20,0 a 150,150 0,1,1 300,0 a 150,150 0,1,1 -300,0 Z " />
      <glyph
        glyph-name="uni2812"
        unicode="&#x2812;"
        horiz-adv-x="1470"
        d="M 320,1250 a 170,170 0,1,0 340,0 a 170,170 0,1,0 -340,0 m 20,0 a 150,150 0,1,1 300,0 a 150,150 0,1,1 -300,0 Z M 320,770 a 170,170 0,1,0 340,0 a 170,170 0,1,0 -340,0 Z M 320,290 a 170,170 0,1,0 340,0 a 170,170 0,1,0 -340,0 m 20,0 a 150,150 0,1,1 300,0 a 150,150 0,1,1 -300,0 Z M 810,1250 a 170,170 0,1,0 340,0 a 170,170 0,1,0 -340,0 m 20,0 a 150,150 0,1,1 300,0 a 150,150 0,1,1 -300,0 Z M 810,770 a 170,170 0,1,0 340,0 a 170,170 0,1,0 -340,0 Z M 810,290 a 170,170 0,1,0 340,0 a 170,170 0,1,0 -340,0 m 20,0 a 150,150 0,1,1 300,0 a 150,150 0,1,1 -300,0 Z M 320,-190 a 170,170 0,1,0 340,0 a 170,170 0,1,0 -340,0 m 20,0 a 150,150 0,1,1 300,0 a 150,150 0,1,1 -300,0 Z M 810,-190 a 170,170 0,1,0 340,0 a 170,170 0,1,0 -340,0 m 20,0 a 150,150 0,1,1 300,0 a 150,150 0,1,1 -300,0 Z " />
      <glyph
        glyph-name="uni2813"
        unicode="&#x2813;"
        horiz-adv-x="1470"
        d="M 320,1250 a 170,170 0,1,0 340,0 a 170,170 0,1,0 -340,0 Z M 320,770 a 170,170 0,1,0 340,0 a 170,170 0,1,0 -340,0 Z M 320,290 a 170,170 0,1,0 340,0 a 170,170 0,1,0 -340,0 m 20,0 a 150,150 0,1,1 300,0 a 150,150 0,1,1 -300,0 Z M 810,1250 a 170,170 0,1,0 340,0 a 170,170 0,1,0 -340,0 m 20,0 a 150,150 0,1,1 300,0 a 150,150 0,1,1 -300,0 Z M 810,770 a 170,170 0,1,0 340,0 a 170,170 0,1,0 -340,0 Z M 810,290 a 170,170 0,1,0 340,0 a 170,170 0,1,0 -340,0 m 20,0 a 150,150 0,1,1 300,0 a 150,150 0,1,1 -300,0 Z M 320,-190 a 170,170 0,1,0 340,0 a 170,170 0,1,0 -340,0 m 20,0 a 150,150 0,1,1 300,0 a 150,150 0,1,1 -300,0 Z M 810,-190 a 170,170 0,1,0 340,0 a 170,170 0,1,0 -340,0 m 20,0 a 150,150 0,1,1 300,0 a 150,150 0,1,1 -300,0 Z " />
      <glyph
        glyph-name="uni2814"
        unicode="&#x2814;"
        horiz-adv-x="1470"
        d="M 320,1250 a 170,170 0,1,0 340,0 a 170,170 0,1,0 -340,0 m 20,0 a 150,150 0,1,1 300,0 a 150,150 0,1,1 -300,0 Z M 320,770 a 170,170 0,1,0 340,0 a 170,170 0,1,0 -340,0 m 20,0 a 150,150 0,1,1 300,0 a 150,150 0,1,1 -300,0 Z M 320,290 a 170,170 0,1,0 340,0 a 170,170 0,1,0 -340,0 Z M 810,1250 a 170,170 0,1,0 340,0 a 170,170 0,1,0 -340,0 m 20,0 a 150,150 0,1,1 300,0 a 150,150 0,1,1 -300,0 Z M 810,770 a 170,170 0,1,0 340,0 a 170,170 0,1,0 -340,0 Z M 810,290 a 170,170 0,1,0 340,0 a 170,170 0,1,0 -340,0 m 20,0 a 150,150 0,1,1 300,0 a 150,150 0,1,1 -300,0 Z M 320,-190 a 170,170 0,1,0 340,0 a 170,170 0,1,0 -340,0 m 20,0 a 150,150 0,1,1 300,0 a 150,150 0,1,1 -300,0 Z M 810,-190 a 170,170 0,1,0 340,0 a 170,170 0,1,0 -340,0 m 20,0 a 150,150 0,1,1 300,0 a 150,150 0,1,1 -300,0 Z " />
      <glyph
        glyph-name="uni2815"
        unicode="&#x2815;"
        horiz-adv-x="1470"
        d="M 320,1250 a 170,170 0,1,0 340,0 a 170,170 0,1,0 -340,0 Z M 320,770 a 170,170 0,1,0 340,0 a 170,170 0,1,0 -340,0 m 20,0 a 150,150 0,1,1 300,0 a 150,150 0,1,1 -300,0 Z M 320,290 a 170,170 0,1,0 340,0 a 170,170 0,1,0 -340,0 Z M 810,1250 a 170,170 0,1,0 340,0 a 170,170 0,1,0 -340,0 m 20,0 a 150,150 0,1,1 300,0 a 150,150 0,1,1 -300,0 Z M 810,770 a 170,170 0,1,0 340,0 a 170,170 0,1,0 -340,0 Z M 810,290 a 170,170 0,1,0 340,0 a 170,170 0,1,0 -340,0 m 20,0 a 150,150 0,1,1 300,0 a 150,150 0,1,1 -300,0 Z M 320,-190 a 170,170 0,1,0 340,0 a 170,170 0,1,0 -340,0 m 20,0 a 150,150 0,1,1 300,0 a 150,150 0,1,1 -300,0 Z M 810,-190 a 170,170 0,1,0 340,0 a 170,170 0,1,0 -340,0 m 20,0 a 150,150 0,1,1 300,0 a 150,150 0,1,1 -300,0 Z " />
      <glyph
        glyph-name="uni2816"
        unicode="&#x2816;"
        horiz-adv-x="1470"
        d="M 320,1250 a 170,170 0,1,0 340,0 a 170,170 0,1,0 -340,0 m 20,0 a 150,150 0,1,1 300,0 a 150,150 0,1,1 -300,0 Z M 320,770 a 170,170 0,1,0 340,0 a 170,170 0,1,0 -340,0 Z M 320,290 a 170,170 0,1,0 340,0 a 170,170 0,1,0 -340,0 Z M 810,1250 a 170,170 0,1,0 340,0 a 170,170 0,1,0 -340,0 m 20,0 a 150,150 0,1,1 300,0 a 150,150 0,1,1 -300,0 Z M 810,770 a 170,170 0,1,0 340,0 a 170,170 0,1,0 -340,0 Z M 810,290 a 170,170 0,1,0 340,0 a 170,170 0,1,0 -340,0 m 20,0 a 150,150 0,1,1 300,0 a 150,150 0,1,1 -300,0 Z M 320,-190 a 170,170 0,1,0 340,0 a 170,170 0,1,0 -340,0 m 20,0 a 150,150 0,1,1 300,0 a 150,150 0,1,1 -300,0 Z M 810,-190 a 170,170 0,1,0 340,0 a 170,170 0,1,0 -340,0 m 20,0 a 150,150 0,1,1 300,0 a 150,150 0,1,1 -300,0 Z " />
      <glyph
        glyph-name="uni2817"
        unicode="&#x2817;"
        horiz-adv-x="1470"
        d="M 320,1250 a 170,170 0,1,0 340,0 a 170,170 0,1,0 -340,0 Z M 320,770 a 170,170 0,1,0 340,0 a 170,170 0,1,0 -340,0 Z M 320,290 a 170,170 0,1,0 340,0 a 170,170 0,1,0 -340,0 Z M 810,1250 a 170,170 0,1,0 340,0 a 170,170 0,1,0 -340,0 m 20,0 a 150,150 0,1,1 300,0 a 150,150 0,1,1 -300,0 Z M 810,770 a 170,170 0,1,0 340,0 a 170,170 0,1,0 -340,0 Z M 810,290 a 170,170 0,1,0 340,0 a 170,170 0,1,0 -340,0 m 20,0 a 150,150 0,1,1 300,0 a 150,150 0,1,1 -300,0 Z M 320,-190 a 170,170 0,1,0 340,0 a 170,170 0,1,0 -340,0 m 20,0 a 150,150 0,1,1 300,0 a 150,150 0,1,1 -300,0 Z M 810,-190 a 170,170 0,1,0 340,0 a 170,170 0,1,0 -340,0 m 20,0 a 150,150 0,1,1 300,0 a 150,150 0,1,1 -300,0 Z " />
      <glyph
        glyph-name="uni2818"
        unicode="&#x2818;"
        horiz-adv-x="1470"
        d="M 320,1250 a 170,170 0,1,0 340,0 a 170,170 0,1,0 -340,0 m 20,0 a 150,150 0,1,1 300,0 a 150,150 0,1,1 -300,0 Z M 320,770 a 170,170 0,1,0 340,0 a 170,170 0,1,0 -340,0 m 20,0 a 150,150 0,1,1 300,0 a 150,150 0,1,1 -300,0 Z M 320,290 a 170,170 0,1,0 340,0 a 170,170 0,1,0 -340,0 m 20,0 a 150,150 0,1,1 300,0 a 150,150 0,1,1 -300,0 Z M 810,1250 a 170,170 0,1,0 340,0 a 170,170 0,1,0 -340,0 Z M 810,770 a 170,170 0,1,0 340,0 a 170,170 0,1,0 -340,0 Z M 810,290 a 170,170 0,1,0 340,0 a 170,170 0,1,0 -340,0 m 20,0 a 150,150 0,1,1 300,0 a 150,150 0,1,1 -300,0 Z M 320,-190 a 170,170 0,1,0 340,0 a 170,170 0,1,0 -340,0 m 20,0 a 150,150 0,1,1 300,0 a 150,150 0,1,1 -300,0 Z M 810,-190 a 170,170 0,1,0 340,0 a 170,170 0,1,0 -340,0 m 20,0 a 150,150 0,1,1 300,0 a 150,150 0,1,1 -300,0 Z " />
      <glyph
        glyph-name="uni2819"
        unicode="&#x2819;"
        horiz-adv-x="1470"
        d="M 320,1250 a 170,170 0,1,0 340,0 a 170,170 0,1,0 -340,0 Z M 320,770 a 170,170 0,1,0 340,0 a 170,170 0,1,0 -340,0 m 20,0 a 150,150 0,1,1 300,0 a 150,150 0,1,1 -300,0 Z M 320,290 a 170,170 0,1,0 340,0 a 170,170 0,1,0 -340,0 m 20,0 a 150,150 0,1,1 300,0 a 150,150 0,1,1 -300,0 Z M 810,1250 a 170,170 0,1,0 340,0 a 170,170 0,1,0 -340,0 Z M 810,770 a 170,170 0,1,0 340,0 a 170,170 0,1,0 -340,0 Z M 810,290 a 170,170 0,1,0 340,0 a 170,170 0,1,0 -340,0 m 20,0 a 150,150 0,1,1 300,0 a 150,150 0,1,1 -300,0 Z M 320,-190 a 170,170 0,1,0 340,0 a 170,170 0,1,0 -340,0 m 20,0 a 150,150 0,1,1 300,0 a 150,150 0,1,1 -300,0 Z M 810,-190 a 170,170 0,1,0 340,0 a 170,170 0,1,0 -340,0 m 20,0 a 150,150 0,1,1 300,0 a 150,150 0,1,1 -300,0 Z " />
      <glyph
        glyph-name="uni281A"
        unicode="&#x281a;"
        horiz-adv-x="1470"
        d="M 320,1250 a 170,170 0,1,0 340,0 a 170,170 0,1,0 -340,0 m 20,0 a 150,150 0,1,1 300,0 a 150,150 0,1,1 -300,0 Z M 320,770 a 170,170 0,1,0 340,0 a 170,170 0,1,0 -340,0 Z M 320,290 a 170,170 0,1,0 340,0 a 170,170 0,1,0 -340,0 m 20,0 a 150,150 0,1,1 300,0 a 150,150 0,1,1 -300,0 Z M 810,1250 a 170,170 0,1,0 340,0 a 170,170 0,1,0 -340,0 Z M 810,770 a 170,170 0,1,0 340,0 a 170,170 0,1,0 -340,0 Z M 810,290 a 170,170 0,1,0 340,0 a 170,170 0,1,0 -340,0 m 20,0 a 150,150 0,1,1 300,0 a 150,150 0,1,1 -300,0 Z M 320,-190 a 170,170 0,1,0 340,0 a 170,170 0,1,0 -340,0 m 20,0 a 150,150 0,1,1 300,0 a 150,150 0,1,1 -300,0 Z M 810,-190 a 170,170 0,1,0 340,0 a 170,170 0,1,0 -340,0 m 20,0 a 150,150 0,1,1 300,0 a 150,150 0,1,1 -300,0 Z " />
      <glyph
        glyph-name="uni281B"
        unicode="&#x281b;"
        horiz-adv-x="1470"
        d="M 320,1250 a 170,170 0,1,0 340,0 a 170,170 0,1,0 -340,0 Z M 320,770 a 170,170 0,1,0 340,0 a 170,170 0,1,0 -340,0 Z M 320,290 a 170,170 0,1,0 340,0 a 170,170 0,1,0 -340,0 m 20,0 a 150,150 0,1,1 300,0 a 150,150 0,1,1 -300,0 Z M 810,1250 a 170,170 0,1,0 340,0 a 170,170 0,1,0 -340,0 Z M 810,770 a 170,170 0,1,0 340,0 a 170,170 0,1,0 -340,0 Z M 810,290 a 170,170 0,1,0 340,0 a 170,170 0,1,0 -340,0 m 20,0 a 150,150 0,1,1 300,0 a 150,150 0,1,1 -300,0 Z M 320,-190 a 170,170 0,1,0 340,0 a 170,170 0,1,0 -340,0 m 20,0 a 150,150 0,1,1 300,0 a 150,150 0,1,1 -300,0 Z M 810,-190 a 170,170 0,1,0 340,0 a 170,170 0,1,0 -340,0 m 20,0 a 150,150 0,1,1 300,0 a 150,150 0,1,1 -300,0 Z " />
      <glyph
        glyph-name="uni281C"
        unicode="&#x281c;"
        horiz-adv-x="1470"
        d="M 320,1250 a 170,170 0,1,0 340,0 a 170,170 0,1,0 -340,0 m 20,0 a 150,150 0,1,1 300,0 a 150,150 0,1,1 -300,0 Z M 320,770 a 170,170 0,1,0 340,0 a 170,170 0,1,0 -340,0 m 20,0 a 150,150 0,1,1 300,0 a 150,150 0,1,1 -300,0 Z M 320,290 a 170,170 0,1,0 340,0 a 170,170 0,1,0 -340,0 Z M 810,1250 a 170,170 0,1,0 340,0 a 170,170 0,1,0 -340,0 Z M 810,770 a 170,170 0,1,0 340,0 a 170,170 0,1,0 -340,0 Z M 810,290 a 170,170 0,1,0 340,0 a 170,170 0,1,0 -340,0 m 20,0 a 150,150 0,1,1 300,0 a 150,150 0,1,1 -300,0 Z M 320,-190 a 170,170 0,1,0 340,0 a 170,170 0,1,0 -340,0 m 20,0 a 150,150 0,1,1 300,0 a 150,150 0,1,1 -300,0 Z M 810,-190 a 170,170 0,1,0 340,0 a 170,170 0,1,0 -340,0 m 20,0 a 150,150 0,1,1 300,0 a 150,150 0,1,1 -300,0 Z " />
      <glyph
        glyph-name="uni281D"
        unicode="&#x281d;"
        horiz-adv-x="1470"
        d="M 320,1250 a 170,170 0,1,0 340,0 a 170,170 0,1,0 -340,0 Z M 320,770 a 170,170 0,1,0 340,0 a 170,170 0,1,0 -340,0 m 20,0 a 150,150 0,1,1 300,0 a 150,150 0,1,1 -300,0 Z M 320,290 a 170,170 0,1,0 340,0 a 170,170 0,1,0 -340,0 Z M 810,1250 a 170,170 0,1,0 340,0 a 170,170 0,1,0 -340,0 Z M 810,770 a 170,170 0,1,0 340,0 a 170,170 0,1,0 -340,0 Z M 810,290 a 170,170 0,1,0 340,0 a 170,170 0,1,0 -340,0 m 20,0 a 150,150 0,1,1 300,0 a 150,150 0,1,1 -300,0 Z M 320,-190 a 170,170 0,1,0 340,0 a 170,170 0,1,0 -340,0 m 20,0 a 150,150 0,1,1 300,0 a 150,150 0,1,1 -300,0 Z M 810,-190 a 170,170 0,1,0 340,0 a 170,170 0,1,0 -340,0 m 20,0 a 150,150 0,1,1 300,0 a 150,150 0,1,1 -300,0 Z " />
      <glyph
        glyph-name="uni281E"
        unicode="&#x281e;"
        horiz-adv-x="1470"
        d="M 320,1250 a 170,170 0,1,0 340,0 a 170,170 0,1,0 -340,0 m 20,0 a 150,150 0,1,1 300,0 a 150,150 0,1,1 -300,0 Z M 320,770 a 170,170 0,1,0 340,0 a 170,170 0,1,0 -340,0 Z M 320,290 a 170,170 0,1,0 340,0 a 170,170 0,1,0 -340,0 Z M 810,1250 a 170,170 0,1,0 340,0 a 170,170 0,1,0 -340,0 Z M 810,770 a 170,170 0,1,0 340,0 a 170,170 0,1,0 -340,0 Z M 810,290 a 170,170 0,1,0 340,0 a 170,170 0,1,0 -340,0 m 20,0 a 150,150 0,1,1 300,0 a 150,150 0,1,1 -300,0 Z M 320,-190 a 170,170 0,1,0 340,0 a 170,170 0,1,0 -340,0 m 20,0 a 150,150 0,1,1 300,0 a 150,150 0,1,1 -300,0 Z M 810,-190 a 170,170 0,1,0 340,0 a 170,170 0,1,0 -340,0 m 20,0 a 150,150 0,1,1 300,0 a 150,150 0,1,1 -300,0 Z " />
      <glyph
        glyph-name="uni281F"
        unicode="&#x281f;"
        horiz-adv-x="1470"
        d="M 320,1250 a 170,170 0,1,0 340,0 a 170,170 0,1,0 -340,0 Z M 320,770 a 170,170 0,1,0 340,0 a 170,170 0,1,0 -340,0 Z M 320,290 a 170,170 0,1,0 340,0 a 170,170 0,1,0 -340,0 Z M 810,1250 a 170,170 0,1,0 340,0 a 170,170 0,1,0 -340,0 Z M 810,770 a 170,170 0,1,0 340,0 a 170,170 0,1,0 -340,0 Z M 810,290 a 170,170 0,1,0 340,0 a 170,170 0,1,0 -340,0 m 20,0 a 150,150 0,1,1 300,0 a 150,150 0,1,1 -300,0 Z M 320,-190 a 170,170 0,1,0 340,0 a 170,170 0,1,0 -340,0 m 20,0 a 150,150 0,1,1 300,0 a 150,150 0,1,1 -300,0 Z M 810,-190 a 170,170 0,1,0 340,0 a 170,170 0,1,0 -340,0 m 20,0 a 150,150 0,1,1 300,0 a 150,150 0,1,1 -300,0 Z " />
      <glyph
        glyph-name="uni2820"
        unicode="&#x2820;"
        horiz-adv-x="1470"
        d="M 320,1250 a 170,170 0,1,0 340,0 a 170,170 0,1,0 -340,0 m 20,0 a 150,150 0,1,1 300,0 a 150,150 0,1,1 -300,0 Z M 320,770 a 170,170 0,1,0 340,0 a 170,170 0,1,0 -340,0 m 20,0 a 150,150 0,1,1 300,0 a 150,150 0,1,1 -300,0 Z M 320,290 a 170,170 0,1,0 340,0 a 170,170 0,1,0 -340,0 m 20,0 a 150,150 0,1,1 300,0 a 150,150 0,1,1 -300,0 Z M 810,1250 a 170,170 0,1,0 340,0 a 170,170 0,1,0 -340,0 m 20,0 a 150,150 0,1,1 300,0 a 150,150 0,1,1 -300,0 Z M 810,770 a 170,170 0,1,0 340,0 a 170,170 0,1,0 -340,0 m 20,0 a 150,150 0,1,1 300,0 a 150,150 0,1,1 -300,0 Z M 810,290 a 170,170 0,1,0 340,0 a 170,170 0,1,0 -340,0 Z M 320,-190 a 170,170 0,1,0 340,0 a 170,170 0,1,0 -340,0 m 20,0 a 150,150 0,1,1 300,0 a 150,150 0,1,1 -300,0 Z M 810,-190 a 170,170 0,1,0 340,0 a 170,170 0,1,0 -340,0 m 20,0 a 150,150 0,1,1 300,0 a 150,150 0,1,1 -300,0 Z " />
      <glyph
        glyph-name="uni2821"
        unicode="&#x2821;"
        horiz-adv-x="1470"
        d="M 320,1250 a 170,170 0,1,0 340,0 a 170,170 0,1,0 -340,0 Z M 320,770 a 170,170 0,1,0 340,0 a 170,170 0,1,0 -340,0 m 20,0 a 150,150 0,1,1 300,0 a 150,150 0,1,1 -300,0 Z M 320,290 a 170,170 0,1,0 340,0 a 170,170 0,1,0 -340,0 m 20,0 a 150,150 0,1,1 300,0 a 150,150 0,1,1 -300,0 Z M 810,1250 a 170,170 0,1,0 340,0 a 170,170 0,1,0 -340,0 m 20,0 a 150,150 0,1,1 300,0 a 150,150 0,1,1 -300,0 Z M 810,770 a 170,170 0,1,0 340,0 a 170,170 0,1,0 -340,0 m 20,0 a 150,150 0,1,1 300,0 a 150,150 0,1,1 -300,0 Z M 810,290 a 170,170 0,1,0 340,0 a 170,170 0,1,0 -340,0 Z M 320,-190 a 170,170 0,1,0 340,0 a 170,170 0,1,0 -340,0 m 20,0 a 150,150 0,1,1 300,0 a 150,150 0,1,1 -300,0 Z M 810,-190 a 170,170 0,1,0 340,0 a 170,170 0,1,0 -340,0 m 20,0 a 150,150 0,1,1 300,0 a 150,150 0,1,1 -300,0 Z " />
      <glyph
        glyph-name="uni2822"
        unicode="&#x2822;"
        horiz-adv-x="1470"
        d="M 320,1250 a 170,170 0,1,0 340,0 a 170,170 0,1,0 -340,0 m 20,0 a 150,150 0,1,1 300,0 a 150,150 0,1,1 -300,0 Z M 320,770 a 170,170 0,1,0 340,0 a 170,170 0,1,0 -340,0 Z M 320,290 a 170,170 0,1,0 340,0 a 170,170 0,1,0 -340,0 m 20,0 a 150,150 0,1,1 300,0 a 150,150 0,1,1 -300,0 Z M 810,1250 a 170,170 0,1,0 340,0 a 170,170 0,1,0 -340,0 m 20,0 a 150,150 0,1,1 300,0 a 150,150 0,1,1 -300,0 Z M 810,770 a 170,170 0,1,0 340,0 a 170,170 0,1,0 -340,0 m 20,0 a 150,150 0,1,1 300,0 a 150,150 0,1,1 -300,0 Z M 810,290 a 170,170 0,1,0 340,0 a 170,170 0,1,0 -340,0 Z M 320,-190 a 170,170 0,1,0 340,0 a 170,170 0,1,0 -340,0 m 20,0 a 150,150 0,1,1 300,0 a 150,150 0,1,1 -300,0 Z M 810,-190 a 170,170 0,1,0 340,0 a 170,170 0,1,0 -340,0 m 20,0 a 150,150 0,1,1 300,0 a 150,150 0,1,1 -300,0 Z " />
      <glyph
        glyph-name="uni2823"
        unicode="&#x2823;"
        horiz-adv-x="1470"
        d="M 320,1250 a 170,170 0,1,0 340,0 a 170,170 0,1,0 -340,0 Z M 320,770 a 170,170 0,1,0 340,0 a 170,170 0,1,0 -340,0 Z M 320,290 a 170,170 0,1,0 340,0 a 170,170 0,1,0 -340,0 m 20,0 a 150,150 0,1,1 300,0 a 150,150 0,1,1 -300,0 Z M 810,1250 a 170,170 0,1,0 340,0 a 170,170 0,1,0 -340,0 m 20,0 a 150,150 0,1,1 300,0 a 150,150 0,1,1 -300,0 Z M 810,770 a 170,170 0,1,0 340,0 a 170,170 0,1,0 -340,0 m 20,0 a 150,150 0,1,1 300,0 a 150,150 0,1,1 -300,0 Z M 810,290 a 170,170 0,1,0 340,0 a 170,170 0,1,0 -340,0 Z M 320,-190 a 170,170 0,1,0 340,0 a 170,170 0,1,0 -340,0 m 20,0 a 150,150 0,1,1 300,0 a 150,150 0,1,1 -300,0 Z M 810,-190 a 170,170 0,1,0 340,0 a 170,170 0,1,0 -340,0 m 20,0 a 150,150 0,1,1 300,0 a 150,150 0,1,1 -300,0 Z " />
      <glyph
        glyph-name="uni2824"
        unicode="&#x2824;"
        horiz-adv-x="1470"
        d="M 320,1250 a 170,170 0,1,0 340,0 a 170,170 0,1,0 -340,0 m 20,0 a 150,150 0,1,1 300,0 a 150,150 0,1,1 -300,0 Z M 320,770 a 170,170 0,1,0 340,0 a 170,170 0,1,0 -340,0 m 20,0 a 150,150 0,1,1 300,0 a 150,150 0,1,1 -300,0 Z M 320,290 a 170,170 0,1,0 340,0 a 170,170 0,1,0 -340,0 Z M 810,1250 a 170,170 0,1,0 340,0 a 170,170 0,1,0 -340,0 m 20,0 a 150,150 0,1,1 300,0 a 150,150 0,1,1 -300,0 Z M 810,770 a 170,170 0,1,0 340,0 a 170,170 0,1,0 -340,0 m 20,0 a 150,150 0,1,1 300,0 a 150,150 0,1,1 -300,0 Z M 810,290 a 170,170 0,1,0 340,0 a 170,170 0,1,0 -340,0 Z M 320,-190 a 170,170 0,1,0 340,0 a 170,170 0,1,0 -340,0 m 20,0 a 150,150 0,1,1 300,0 a 150,150 0,1,1 -300,0 Z M 810,-190 a 170,170 0,1,0 340,0 a 170,170 0,1,0 -340,0 m 20,0 a 150,150 0,1,1 300,0 a 150,150 0,1,1 -300,0 Z " />
      <glyph
        glyph-name="uni2825"
        unicode="&#x2825;"
        horiz-adv-x="1470"
        d="M 320,1250 a 170,170 0,1,0 340,0 a 170,170 0,1,0 -340,0 Z M 320,770 a 170,170 0,1,0 340,0 a 170,170 0,1,0 -340,0 m 20,0 a 150,150 0,1,1 300,0 a 150,150 0,1,1 -300,0 Z M 320,290 a 170,170 0,1,0 340,0 a 170,170 0,1,0 -340,0 Z M 810,1250 a 170,170 0,1,0 340,0 a 170,170 0,1,0 -340,0 m 20,0 a 150,150 0,1,1 300,0 a 150,150 0,1,1 -300,0 Z M 810,770 a 170,170 0,1,0 340,0 a 170,170 0,1,0 -340,0 m 20,0 a 150,150 0,1,1 300,0 a 150,150 0,1,1 -300,0 Z M 810,290 a 170,170 0,1,0 340,0 a 170,170 0,1,0 -340,0 Z M 320,-190 a 170,170 0,1,0 340,0 a 170,170 0,1,0 -340,0 m 20,0 a 150,150 0,1,1 300,0 a 150,150 0,1,1 -300,0 Z M 810,-190 a 170,170 0,1,0 340,0 a 170,170 0,1,0 -340,0 m 20,0 a 150,150 0,1,1 300,0 a 150,150 0,1,1 -300,0 Z " />
      <glyph
        glyph-name="uni2826"
        unicode="&#x2826;"
        horiz-adv-x="1470"
        d="M 320,1250 a 170,170 0,1,0 340,0 a 170,170 0,1,0 -340,0 m 20,0 a 150,150 0,1,1 300,0 a 150,150 0,1,1 -300,0 Z M 320,770 a 170,170 0,1,0 340,0 a 170,170 0,1,0 -340,0 Z M 320,290 a 170,170 0,1,0 340,0 a 170,170 0,1,0 -340,0 Z M 810,1250 a 170,170 0,1,0 340,0 a 170,170 0,1,0 -340,0 m 20,0 a 150,150 0,1,1 300,0 a 150,150 0,1,1 -300,0 Z M 810,770 a 170,170 0,1,0 340,0 a 170,170 0,1,0 -340,0 m 20,0 a 150,150 0,1,1 300,0 a 150,150 0,1,1 -300,0 Z M 810,290 a 170,170 0,1,0 340,0 a 170,170 0,1,0 -340,0 Z M 320,-190 a 170,170 0,1,0 340,0 a 170,170 0,1,0 -340,0 m 20,0 a 150,150 0,1,1 300,0 a 150,150 0,1,1 -300,0 Z M 810,-190 a 170,170 0,1,0 340,0 a 170,170 0,1,0 -340,0 m 20,0 a 150,150 0,1,1 300,0 a 150,150 0,1,1 -300,0 Z " />
      <glyph
        glyph-name="uni2827"
        unicode="&#x2827;"
        horiz-adv-x="1470"
        d="M 320,1250 a 170,170 0,1,0 340,0 a 170,170 0,1,0 -340,0 Z M 320,770 a 170,170 0,1,0 340,0 a 170,170 0,1,0 -340,0 Z M 320,290 a 170,170 0,1,0 340,0 a 170,170 0,1,0 -340,0 Z M 810,1250 a 170,170 0,1,0 340,0 a 170,170 0,1,0 -340,0 m 20,0 a 150,150 0,1,1 300,0 a 150,150 0,1,1 -300,0 Z M 810,770 a 170,170 0,1,0 340,0 a 170,170 0,1,0 -340,0 m 20,0 a 150,150 0,1,1 300,0 a 150,150 0,1,1 -300,0 Z M 810,290 a 170,170 0,1,0 340,0 a 170,170 0,1,0 -340,0 Z M 320,-190 a 170,170 0,1,0 340,0 a 170,170 0,1,0 -340,0 m 20,0 a 150,150 0,1,1 300,0 a 150,150 0,1,1 -300,0 Z M 810,-190 a 170,170 0,1,0 340,0 a 170,170 0,1,0 -340,0 m 20,0 a 150,150 0,1,1 300,0 a 150,150 0,1,1 -300,0 Z " />
      <glyph
        glyph-name="uni2828"
        unicode="&#x2828;"
        horiz-adv-x="1470"
        d="M 320,1250 a 170,170 0,1,0 340,0 a 170,170 0,1,0 -340,0 m 20,0 a 150,150 0,1,1 300,0 a 150,150 0,1,1 -300,0 Z M 320,770 a 170,170 0,1,0 340,0 a 170,170 0,1,0 -340,0 m 20,0 a 150,150 0,1,1 300,0 a 150,150 0,1,1 -300,0 Z M 320,290 a 170,170 0,1,0 340,0 a 170,170 0,1,0 -340,0 m 20,0 a 150,150 0,1,1 300,0 a 150,150 0,1,1 -300,0 Z M 810,1250 a 170,170 0,1,0 340,0 a 170,170 0,1,0 -340,0 Z M 810,770 a 170,170 0,1,0 340,0 a 170,170 0,1,0 -340,0 m 20,0 a 150,150 0,1,1 300,0 a 150,150 0,1,1 -300,0 Z M 810,290 a 170,170 0,1,0 340,0 a 170,170 0,1,0 -340,0 Z M 320,-190 a 170,170 0,1,0 340,0 a 170,170 0,1,0 -340,0 m 20,0 a 150,150 0,1,1 300,0 a 150,150 0,1,1 -300,0 Z M 810,-190 a 170,170 0,1,0 340,0 a 170,170 0,1,0 -340,0 m 20,0 a 150,150 0,1,1 300,0 a 150,150 0,1,1 -300,0 Z " />
      <glyph
        glyph-name="uni2829"
        unicode="&#x2829;"
        horiz-adv-x="1470"
        d="M 320,1250 a 170,170 0,1,0 340,0 a 170,170 0,1,0 -340,0 Z M 320,770 a 170,170 0,1,0 340,0 a 170,170 0,1,0 -340,0 m 20,0 a 150,150 0,1,1 300,0 a 150,150 0,1,1 -300,0 Z M 320,290 a 170,170 0,1,0 340,0 a 170,170 0,1,0 -340,0 m 20,0 a 150,150 0,1,1 300,0 a 150,150 0,1,1 -300,0 Z M 810,1250 a 170,170 0,1,0 340,0 a 170,170 0,1,0 -340,0 Z M 810,770 a 170,170 0,1,0 340,0 a 170,170 0,1,0 -340,0 m 20,0 a 150,150 0,1,1 300,0 a 150,150 0,1,1 -300,0 Z M 810,290 a 170,170 0,1,0 340,0 a 170,170 0,1,0 -340,0 Z M 320,-190 a 170,170 0,1,0 340,0 a 170,170 0,1,0 -340,0 m 20,0 a 150,150 0,1,1 300,0 a 150,150 0,1,1 -300,0 Z M 810,-190 a 170,170 0,1,0 340,0 a 170,170 0,1,0 -340,0 m 20,0 a 150,150 0,1,1 300,0 a 150,150 0,1,1 -300,0 Z " />
      <glyph
        glyph-name="uni282A"
        unicode="&#x282a;"
        horiz-adv-x="1470"
        d="M 320,1250 a 170,170 0,1,0 340,0 a 170,170 0,1,0 -340,0 m 20,0 a 150,150 0,1,1 300,0 a 150,150 0,1,1 -300,0 Z M 320,770 a 170,170 0,1,0 340,0 a 170,170 0,1,0 -340,0 Z M 320,290 a 170,170 0,1,0 340,0 a 170,170 0,1,0 -340,0 m 20,0 a 150,150 0,1,1 300,0 a 150,150 0,1,1 -300,0 Z M 810,1250 a 170,170 0,1,0 340,0 a 170,170 0,1,0 -340,0 Z M 810,770 a 170,170 0,1,0 340,0 a 170,170 0,1,0 -340,0 m 20,0 a 150,150 0,1,1 300,0 a 150,150 0,1,1 -300,0 Z M 810,290 a 170,170 0,1,0 340,0 a 170,170 0,1,0 -340,0 Z M 320,-190 a 170,170 0,1,0 340,0 a 170,170 0,1,0 -340,0 m 20,0 a 150,150 0,1,1 300,0 a 150,150 0,1,1 -300,0 Z M 810,-190 a 170,170 0,1,0 340,0 a 170,170 0,1,0 -340,0 m 20,0 a 150,150 0,1,1 300,0 a 150,150 0,1,1 -300,0 Z " />
      <glyph
        glyph-name="uni282B"
        unicode="&#x282b;"
        horiz-adv-x="1470"
        d="M 320,1250 a 170,170 0,1,0 340,0 a 170,170 0,1,0 -340,0 Z M 320,770 a 170,170 0,1,0 340,0 a 170,170 0,1,0 -340,0 Z M 320,290 a 170,170 0,1,0 340,0 a 170,170 0,1,0 -340,0 m 20,0 a 150,150 0,1,1 300,0 a 150,150 0,1,1 -300,0 Z M 810,1250 a 170,170 0,1,0 340,0 a 170,170 0,1,0 -340,0 Z M 810,770 a 170,170 0,1,0 340,0 a 170,170 0,1,0 -340,0 m 20,0 a 150,150 0,1,1 300,0 a 150,150 0,1,1 -300,0 Z M 810,290 a 170,170 0,1,0 340,0 a 170,170 0,1,0 -340,0 Z M 320,-190 a 170,170 0,1,0 340,0 a 170,170 0,1,0 -340,0 m 20,0 a 150,150 0,1,1 300,0 a 150,150 0,1,1 -300,0 Z M 810,-190 a 170,170 0,1,0 340,0 a 170,170 0,1,0 -340,0 m 20,0 a 150,150 0,1,1 300,0 a 150,150 0,1,1 -300,0 Z " />
      <glyph
        glyph-name="uni282C"
        unicode="&#x282c;"
        horiz-adv-x="1470"
        d="M 320,1250 a 170,170 0,1,0 340,0 a 170,170 0,1,0 -340,0 m 20,0 a 150,150 0,1,1 300,0 a 150,150 0,1,1 -300,0 Z M 320,770 a 170,170 0,1,0 340,0 a 170,170 0,1,0 -340,0 m 20,0 a 150,150 0,1,1 300,0 a 150,150 0,1,1 -300,0 Z M 320,290 a 170,170 0,1,0 340,0 a 170,170 0,1,0 -340,0 Z M 810,1250 a 170,170 0,1,0 340,0 a 170,170 0,1,0 -340,0 Z M 810,770 a 170,170 0,1,0 340,0 a 170,170 0,1,0 -340,0 m 20,0 a 150,150 0,1,1 300,0 a 150,150 0,1,1 -300,0 Z M 810,290 a 170,170 0,1,0 340,0 a 170,170 0,1,0 -340,0 Z M 320,-190 a 170,170 0,1,0 340,0 a 170,170 0,1,0 -340,0 m 20,0 a 150,150 0,1,1 300,0 a 150,150 0,1,1 -300,0 Z M 810,-190 a 170,170 0,1,0 340,0 a 170,170 0,1,0 -340,0 m 20,0 a 150,150 0,1,1 300,0 a 150,150 0,1,1 -300,0 Z " />
      <glyph
        glyph-name="uni282D"
        unicode="&#x282d;"
        horiz-adv-x="1470"
        d="M 320,1250 a 170,170 0,1,0 340,0 a 170,170 0,1,0 -340,0 Z M 320,770 a 170,170 0,1,0 340,0 a 170,170 0,1,0 -340,0 m 20,0 a 150,150 0,1,1 300,0 a 150,150 0,1,1 -300,0 Z M 320,290 a 170,170 0,1,0 340,0 a 170,170 0,1,0 -340,0 Z M 810,1250 a 170,170 0,1,0 340,0 a 170,170 0,1,0 -340,0 Z M 810,770 a 170,170 0,1,0 340,0 a 170,170 0,1,0 -340,0 m 20,0 a 150,150 0,1,1 300,0 a 150,150 0,1,1 -300,0 Z M 810,290 a 170,170 0,1,0 340,0 a 170,170 0,1,0 -340,0 Z M 320,-190 a 170,170 0,1,0 340,0 a 170,170 0,1,0 -340,0 m 20,0 a 150,150 0,1,1 300,0 a 150,150 0,1,1 -300,0 Z M 810,-190 a 170,170 0,1,0 340,0 a 170,170 0,1,0 -340,0 m 20,0 a 150,150 0,1,1 300,0 a 150,150 0,1,1 -300,0 Z " />
      <glyph
        glyph-name="uni282E"
        unicode="&#x282e;"
        horiz-adv-x="1470"
        d="M 320,1250 a 170,170 0,1,0 340,0 a 170,170 0,1,0 -340,0 m 20,0 a 150,150 0,1,1 300,0 a 150,150 0,1,1 -300,0 Z M 320,770 a 170,170 0,1,0 340,0 a 170,170 0,1,0 -340,0 Z M 320,290 a 170,170 0,1,0 340,0 a 170,170 0,1,0 -340,0 Z M 810,1250 a 170,170 0,1,0 340,0 a 170,170 0,1,0 -340,0 Z M 810,770 a 170,170 0,1,0 340,0 a 170,170 0,1,0 -340,0 m 20,0 a 150,150 0,1,1 300,0 a 150,150 0,1,1 -300,0 Z M 810,290 a 170,170 0,1,0 340,0 a 170,170 0,1,0 -340,0 Z M 320,-190 a 170,170 0,1,0 340,0 a 170,170 0,1,0 -340,0 m 20,0 a 150,150 0,1,1 300,0 a 150,150 0,1,1 -300,0 Z M 810,-190 a 170,170 0,1,0 340,0 a 170,170 0,1,0 -340,0 m 20,0 a 150,150 0,1,1 300,0 a 150,150 0,1,1 -300,0 Z " />
      <glyph
        glyph-name="uni282F"
        unicode="&#x282f;"
        horiz-adv-x="1470"
        d="M 320,1250 a 170,170 0,1,0 340,0 a 170,170 0,1,0 -340,0 Z M 320,770 a 170,170 0,1,0 340,0 a 170,170 0,1,0 -340,0 Z M 320,290 a 170,170 0,1,0 340,0 a 170,170 0,1,0 -340,0 Z M 810,1250 a 170,170 0,1,0 340,0 a 170,170 0,1,0 -340,0 Z M 810,770 a 170,170 0,1,0 340,0 a 170,170 0,1,0 -340,0 m 20,0 a 150,150 0,1,1 300,0 a 150,150 0,1,1 -300,0 Z M 810,290 a 170,170 0,1,0 340,0 a 170,170 0,1,0 -340,0 Z M 320,-190 a 170,170 0,1,0 340,0 a 170,170 0,1,0 -340,0 m 20,0 a 150,150 0,1,1 300,0 a 150,150 0,1,1 -300,0 Z M 810,-190 a 170,170 0,1,0 340,0 a 170,170 0,1,0 -340,0 m 20,0 a 150,150 0,1,1 300,0 a 150,150 0,1,1 -300,0 Z " />
      <glyph
        glyph-name="uni2830"
        unicode="&#x2830;"
        horiz-adv-x="1470"
        d="M 320,1250 a 170,170 0,1,0 340,0 a 170,170 0,1,0 -340,0 m 20,0 a 150,150 0,1,1 300,0 a 150,150 0,1,1 -300,0 Z M 320,770 a 170,170 0,1,0 340,0 a 170,170 0,1,0 -340,0 m 20,0 a 150,150 0,1,1 300,0 a 150,150 0,1,1 -300,0 Z M 320,290 a 170,170 0,1,0 340,0 a 170,170 0,1,0 -340,0 m 20,0 a 150,150 0,1,1 300,0 a 150,150 0,1,1 -300,0 Z M 810,1250 a 170,170 0,1,0 340,0 a 170,170 0,1,0 -340,0 m 20,0 a 150,150 0,1,1 300,0 a 150,150 0,1,1 -300,0 Z M 810,770 a 170,170 0,1,0 340,0 a 170,170 0,1,0 -340,0 Z M 810,290 a 170,170 0,1,0 340,0 a 170,170 0,1,0 -340,0 Z M 320,-190 a 170,170 0,1,0 340,0 a 170,170 0,1,0 -340,0 m 20,0 a 150,150 0,1,1 300,0 a 150,150 0,1,1 -300,0 Z M 810,-190 a 170,170 0,1,0 340,0 a 170,170 0,1,0 -340,0 m 20,0 a 150,150 0,1,1 300,0 a 150,150 0,1,1 -300,0 Z " />
      <glyph
        glyph-name="uni2831"
        unicode="&#x2831;"
        horiz-adv-x="1470"
        d="M 320,1250 a 170,170 0,1,0 340,0 a 170,170 0,1,0 -340,0 Z M 320,770 a 170,170 0,1,0 340,0 a 170,170 0,1,0 -340,0 m 20,0 a 150,150 0,1,1 300,0 a 150,150 0,1,1 -300,0 Z M 320,290 a 170,170 0,1,0 340,0 a 170,170 0,1,0 -340,0 m 20,0 a 150,150 0,1,1 300,0 a 150,150 0,1,1 -300,0 Z M 810,1250 a 170,170 0,1,0 340,0 a 170,170 0,1,0 -340,0 m 20,0 a 150,150 0,1,1 300,0 a 150,150 0,1,1 -300,0 Z M 810,770 a 170,170 0,1,0 340,0 a 170,170 0,1,0 -340,0 Z M 810,290 a 170,170 0,1,0 340,0 a 170,170 0,1,0 -340,0 Z M 320,-190 a 170,170 0,1,0 340,0 a 170,170 0,1,0 -340,0 m 20,0 a 150,150 0,1,1 300,0 a 150,150 0,1,1 -300,0 Z M 810,-190 a 170,170 0,1,0 340,0 a 170,170 0,1,0 -340,0 m 20,0 a 150,150 0,1,1 300,0 a 150,150 0,1,1 -300,0 Z " />
      <glyph
        glyph-name="uni2832"
        unicode="&#x2832;"
        horiz-adv-x="1470"
        d="M 320,1250 a 170,170 0,1,0 340,0 a 170,170 0,1,0 -340,0 m 20,0 a 150,150 0,1,1 300,0 a 150,150 0,1,1 -300,0 Z M 320,770 a 170,170 0,1,0 340,0 a 170,170 0,1,0 -340,0 Z M 320,290 a 170,170 0,1,0 340,0 a 170,170 0,1,0 -340,0 m 20,0 a 150,150 0,1,1 300,0 a 150,150 0,1,1 -300,0 Z M 810,1250 a 170,170 0,1,0 340,0 a 170,170 0,1,0 -340,0 m 20,0 a 150,150 0,1,1 300,0 a 150,150 0,1,1 -300,0 Z M 810,770 a 170,170 0,1,0 340,0 a 170,170 0,1,0 -340,0 Z M 810,290 a 170,170 0,1,0 340,0 a 170,170 0,1,0 -340,0 Z M 320,-190 a 170,170 0,1,0 340,0 a 170,170 0,1,0 -340,0 m 20,0 a 150,150 0,1,1 300,0 a 150,150 0,1,1 -300,0 Z M 810,-190 a 170,170 0,1,0 340,0 a 170,170 0,1,0 -340,0 m 20,0 a 150,150 0,1,1 300,0 a 150,150 0,1,1 -300,0 Z " />
      <glyph
        glyph-name="uni2833"
        unicode="&#x2833;"
        horiz-adv-x="1470"
        d="M 320,1250 a 170,170 0,1,0 340,0 a 170,170 0,1,0 -340,0 Z M 320,770 a 170,170 0,1,0 340,0 a 170,170 0,1,0 -340,0 Z M 320,290 a 170,170 0,1,0 340,0 a 170,170 0,1,0 -340,0 m 20,0 a 150,150 0,1,1 300,0 a 150,150 0,1,1 -300,0 Z M 810,1250 a 170,170 0,1,0 340,0 a 170,170 0,1,0 -340,0 m 20,0 a 150,150 0,1,1 300,0 a 150,150 0,1,1 -300,0 Z M 810,770 a 170,170 0,1,0 340,0 a 170,170 0,1,0 -340,0 Z M 810,290 a 170,170 0,1,0 340,0 a 170,170 0,1,0 -340,0 Z M 320,-190 a 170,170 0,1,0 340,0 a 170,170 0,1,0 -340,0 m 20,0 a 150,150 0,1,1 300,0 a 150,150 0,1,1 -300,0 Z M 810,-190 a 170,170 0,1,0 340,0 a 170,170 0,1,0 -340,0 m 20,0 a 150,150 0,1,1 300,0 a 150,150 0,1,1 -300,0 Z " />
      <glyph
        glyph-name="uni2834"
        unicode="&#x2834;"
        horiz-adv-x="1470"
        d="M 320,1250 a 170,170 0,1,0 340,0 a 170,170 0,1,0 -340,0 m 20,0 a 150,150 0,1,1 300,0 a 150,150 0,1,1 -300,0 Z M 320,770 a 170,170 0,1,0 340,0 a 170,170 0,1,0 -340,0 m 20,0 a 150,150 0,1,1 300,0 a 150,150 0,1,1 -300,0 Z M 320,290 a 170,170 0,1,0 340,0 a 170,170 0,1,0 -340,0 Z M 810,1250 a 170,170 0,1,0 340,0 a 170,170 0,1,0 -340,0 m 20,0 a 150,150 0,1,1 300,0 a 150,150 0,1,1 -300,0 Z M 810,770 a 170,170 0,1,0 340,0 a 170,170 0,1,0 -340,0 Z M 810,290 a 170,170 0,1,0 340,0 a 170,170 0,1,0 -340,0 Z M 320,-190 a 170,170 0,1,0 340,0 a 170,170 0,1,0 -340,0 m 20,0 a 150,150 0,1,1 300,0 a 150,150 0,1,1 -300,0 Z M 810,-190 a 170,170 0,1,0 340,0 a 170,170 0,1,0 -340,0 m 20,0 a 150,150 0,1,1 300,0 a 150,150 0,1,1 -300,0 Z " />
      <glyph
        glyph-name="uni2835"
        unicode="&#x2835;"
        horiz-adv-x="1470"
        d="M 320,1250 a 170,170 0,1,0 340,0 a 170,170 0,1,0 -340,0 Z M 320,770 a 170,170 0,1,0 340,0 a 170,170 0,1,0 -340,0 m 20,0 a 150,150 0,1,1 300,0 a 150,150 0,1,1 -300,0 Z M 320,290 a 170,170 0,1,0 340,0 a 170,170 0,1,0 -340,0 Z M 810,1250 a 170,170 0,1,0 340,0 a 170,170 0,1,0 -340,0 m 20,0 a 150,150 0,1,1 300,0 a 150,150 0,1,1 -300,0 Z M 810,770 a 170,170 0,1,0 340,0 a 170,170 0,1,0 -340,0 Z M 810,290 a 170,170 0,1,0 340,0 a 170,170 0,1,0 -340,0 Z M 320,-190 a 170,170 0,1,0 340,0 a 170,170 0,1,0 -340,0 m 20,0 a 150,150 0,1,1 300,0 a 150,150 0,1,1 -300,0 Z M 810,-190 a 170,170 0,1,0 340,0 a 170,170 0,1,0 -340,0 m 20,0 a 150,150 0,1,1 300,0 a 150,150 0,1,1 -300,0 Z " />
      <glyph
        glyph-name="uni2836"
        unicode="&#x2836;"
        horiz-adv-x="1470"
        d="M 320,1250 a 170,170 0,1,0 340,0 a 170,170 0,1,0 -340,0 m 20,0 a 150,150 0,1,1 300,0 a 150,150 0,1,1 -300,0 Z M 320,770 a 170,170 0,1,0 340,0 a 170,170 0,1,0 -340,0 Z M 320,290 a 170,170 0,1,0 340,0 a 170,170 0,1,0 -340,0 Z M 810,1250 a 170,170 0,1,0 340,0 a 170,170 0,1,0 -340,0 m 20,0 a 150,150 0,1,1 300,0 a 150,150 0,1,1 -300,0 Z M 810,770 a 170,170 0,1,0 340,0 a 170,170 0,1,0 -340,0 Z M 810,290 a 170,170 0,1,0 340,0 a 170,170 0,1,0 -340,0 Z M 320,-190 a 170,170 0,1,0 340,0 a 170,170 0,1,0 -340,0 m 20,0 a 150,150 0,1,1 300,0 a 150,150 0,1,1 -300,0 Z M 810,-190 a 170,170 0,1,0 340,0 a 170,170 0,1,0 -340,0 m 20,0 a 150,150 0,1,1 300,0 a 150,150 0,1,1 -300,0 Z " />
      <glyph
        glyph-name="uni2837"
        unicode="&#x2837;"
        horiz-adv-x="1470"
        d="M 320,1250 a 170,170 0,1,0 340,0 a 170,170 0,1,0 -340,0 Z M 320,770 a 170,170 0,1,0 340,0 a 170,170 0,1,0 -340,0 Z M 320,290 a 170,170 0,1,0 340,0 a 170,170 0,1,0 -340,0 Z M 810,1250 a 170,170 0,1,0 340,0 a 170,170 0,1,0 -340,0 m 20,0 a 150,150 0,1,1 300,0 a 150,150 0,1,1 -300,0 Z M 810,770 a 170,170 0,1,0 340,0 a 170,170 0,1,0 -340,0 Z M 810,290 a 170,170 0,1,0 340,0 a 170,170 0,1,0 -340,0 Z M 320,-190 a 170,170 0,1,0 340,0 a 170,170 0,1,0 -340,0 m 20,0 a 150,150 0,1,1 300,0 a 150,150 0,1,1 -300,0 Z M 810,-190 a 170,170 0,1,0 340,0 a 170,170 0,1,0 -340,0 m 20,0 a 150,150 0,1,1 300,0 a 150,150 0,1,1 -300,0 Z " />
      <glyph
        glyph-name="uni2838"
        unicode="&#x2838;"
        horiz-adv-x="1470"
        d="M 320,1250 a 170,170 0,1,0 340,0 a 170,170 0,1,0 -340,0 m 20,0 a 150,150 0,1,1 300,0 a 150,150 0,1,1 -300,0 Z M 320,770 a 170,170 0,1,0 340,0 a 170,170 0,1,0 -340,0 m 20,0 a 150,150 0,1,1 300,0 a 150,150 0,1,1 -300,0 Z M 320,290 a 170,170 0,1,0 340,0 a 170,170 0,1,0 -340,0 m 20,0 a 150,150 0,1,1 300,0 a 150,150 0,1,1 -300,0 Z M 810,1250 a 170,170 0,1,0 340,0 a 170,170 0,1,0 -340,0 Z M 810,770 a 170,170 0,1,0 340,0 a 170,170 0,1,0 -340,0 Z M 810,290 a 170,170 0,1,0 340,0 a 170,170 0,1,0 -340,0 Z M 320,-190 a 170,170 0,1,0 340,0 a 170,170 0,1,0 -340,0 m 20,0 a 150,150 0,1,1 300,0 a 150,150 0,1,1 -300,0 Z M 810,-190 a 170,170 0,1,0 340,0 a 170,170 0,1,0 -340,0 m 20,0 a 150,150 0,1,1 300,0 a 150,150 0,1,1 -300,0 Z " />
      <glyph
        glyph-name="uni2839"
        unicode="&#x2839;"
        horiz-adv-x="1470"
        d="M 320,1250 a 170,170 0,1,0 340,0 a 170,170 0,1,0 -340,0 Z M 320,770 a 170,170 0,1,0 340,0 a 170,170 0,1,0 -340,0 m 20,0 a 150,150 0,1,1 300,0 a 150,150 0,1,1 -300,0 Z M 320,290 a 170,170 0,1,0 340,0 a 170,170 0,1,0 -340,0 m 20,0 a 150,150 0,1,1 300,0 a 150,150 0,1,1 -300,0 Z M 810,1250 a 170,170 0,1,0 340,0 a 170,170 0,1,0 -340,0 Z M 810,770 a 170,170 0,1,0 340,0 a 170,170 0,1,0 -340,0 Z M 810,290 a 170,170 0,1,0 340,0 a 170,170 0,1,0 -340,0 Z M 320,-190 a 170,170 0,1,0 340,0 a 170,170 0,1,0 -340,0 m 20,0 a 150,150 0,1,1 300,0 a 150,150 0,1,1 -300,0 Z M 810,-190 a 170,170 0,1,0 340,0 a 170,170 0,1,0 -340,0 m 20,0 a 150,150 0,1,1 300,0 a 150,150 0,1,1 -300,0 Z " />
      <glyph
        glyph-name="uni283A"
        unicode="&#x283a;"
        horiz-adv-x="1470"
        d="M 320,1250 a 170,170 0,1,0 340,0 a 170,170 0,1,0 -340,0 m 20,0 a 150,150 0,1,1 300,0 a 150,150 0,1,1 -300,0 Z M 320,770 a 170,170 0,1,0 340,0 a 170,170 0,1,0 -340,0 Z M 320,290 a 170,170 0,1,0 340,0 a 170,170 0,1,0 -340,0 m 20,0 a 150,150 0,1,1 300,0 a 150,150 0,1,1 -300,0 Z M 810,1250 a 170,170 0,1,0 340,0 a 170,170 0,1,0 -340,0 Z M 810,770 a 170,170 0,1,0 340,0 a 170,170 0,1,0 -340,0 Z M 810,290 a 170,170 0,1,0 340,0 a 170,170 0,1,0 -340,0 Z M 320,-190 a 170,170 0,1,0 340,0 a 170,170 0,1,0 -340,0 m 20,0 a 150,150 0,1,1 300,0 a 150,150 0,1,1 -300,0 Z M 810,-190 a 170,170 0,1,0 340,0 a 170,170 0,1,0 -340,0 m 20,0 a 150,150 0,1,1 300,0 a 150,150 0,1,1 -300,0 Z " />
      <glyph
        glyph-name="uni283B"
        unicode="&#x283b;"
        horiz-adv-x="1470"
        d="M 320,1250 a 170,170 0,1,0 340,0 a 170,170 0,1,0 -340,0 Z M 320,770 a 170,170 0,1,0 340,0 a 170,170 0,1,0 -340,0 Z M 320,290 a 170,170 0,1,0 340,0 a 170,170 0,1,0 -340,0 m 20,0 a 150,150 0,1,1 300,0 a 150,150 0,1,1 -300,0 Z M 810,1250 a 170,170 0,1,0 340,0 a 170,170 0,1,0 -340,0 Z M 810,770 a 170,170 0,1,0 340,0 a 170,170 0,1,0 -340,0 Z M 810,290 a 170,170 0,1,0 340,0 a 170,170 0,1,0 -340,0 Z M 320,-190 a 170,170 0,1,0 340,0 a 170,170 0,1,0 -340,0 m 20,0 a 150,150 0,1,1 300,0 a 150,150 0,1,1 -300,0 Z M 810,-190 a 170,170 0,1,0 340,0 a 170,170 0,1,0 -340,0 m 20,0 a 150,150 0,1,1 300,0 a 150,150 0,1,1 -300,0 Z " />
      <glyph
        glyph-name="uni283C"
        unicode="&#x283c;"
        horiz-adv-x="1470"
        d="M 320,1250 a 170,170 0,1,0 340,0 a 170,170 0,1,0 -340,0 m 20,0 a 150,150 0,1,1 300,0 a 150,150 0,1,1 -300,0 Z M 320,770 a 170,170 0,1,0 340,0 a 170,170 0,1,0 -340,0 m 20,0 a 150,150 0,1,1 300,0 a 150,150 0,1,1 -300,0 Z M 320,290 a 170,170 0,1,0 340,0 a 170,170 0,1,0 -340,0 Z M 810,1250 a 170,170 0,1,0 340,0 a 170,170 0,1,0 -340,0 Z M 810,770 a 170,170 0,1,0 340,0 a 170,170 0,1,0 -340,0 Z M 810,290 a 170,170 0,1,0 340,0 a 170,170 0,1,0 -340,0 Z M 320,-190 a 170,170 0,1,0 340,0 a 170,170 0,1,0 -340,0 m 20,0 a 150,150 0,1,1 300,0 a 150,150 0,1,1 -300,0 Z M 810,-190 a 170,170 0,1,0 340,0 a 170,170 0,1,0 -340,0 m 20,0 a 150,150 0,1,1 300,0 a 150,150 0,1,1 -300,0 Z " />
      <glyph
        glyph-name="uni283D"
        unicode="&#x283d;"
        horiz-adv-x="1470"
        d="M 320,1250 a 170,170 0,1,0 340,0 a 170,170 0,1,0 -340,0 Z M 320,770 a 170,170 0,1,0 340,0 a 170,170 0,1,0 -340,0 m 20,0 a 150,150 0,1,1 300,0 a 150,150 0,1,1 -300,0 Z M 320,290 a 170,170 0,1,0 340,0 a 170,170 0,1,0 -340,0 Z M 810,1250 a 170,170 0,1,0 340,0 a 170,170 0,1,0 -340,0 Z M 810,770 a 170,170 0,1,0 340,0 a 170,170 0,1,0 -340,0 Z M 810,290 a 170,170 0,1,0 340,0 a 170,170 0,1,0 -340,0 Z M 320,-190 a 170,170 0,1,0 340,0 a 170,170 0,1,0 -340,0 m 20,0 a 150,150 0,1,1 300,0 a 150,150 0,1,1 -300,0 Z M 810,-190 a 170,170 0,1,0 340,0 a 170,170 0,1,0 -340,0 m 20,0 a 150,150 0,1,1 300,0 a 150,150 0,1,1 -300,0 Z " />
      <glyph
        glyph-name="uni283E"
        unicode="&#x283e;"
        horiz-adv-x="1470"
        d="M 320,1250 a 170,170 0,1,0 340,0 a 170,170 0,1,0 -340,0 m 20,0 a 150,150 0,1,1 300,0 a 150,150 0,1,1 -300,0 Z M 320,770 a 170,170 0,1,0 340,0 a 170,170 0,1,0 -340,0 Z M 320,290 a 170,170 0,1,0 340,0 a 170,170 0,1,0 -340,0 Z M 810,1250 a 170,170 0,1,0 340,0 a 170,170 0,1,0 -340,0 Z M 810,770 a 170,170 0,1,0 340,0 a 170,170 0,1,0 -340,0 Z M 810,290 a 170,170 0,1,0 340,0 a 170,170 0,1,0 -340,0 Z M 320,-190 a 170,170 0,1,0 340,0 a 170,170 0,1,0 -340,0 m 20,0 a 150,150 0,1,1 300,0 a 150,150 0,1,1 -300,0 Z M 810,-190 a 170,170 0,1,0 340,0 a 170,170 0,1,0 -340,0 m 20,0 a 150,150 0,1,1 300,0 a 150,150 0,1,1 -300,0 Z " />
      <glyph
        glyph-name="uni283F"
        unicode="&#x283f;"
        horiz-adv-x="1470"
        d="M 320,1250 a 170,170 0,1,0 340,0 a 170,170 0,1,0 -340,0 Z M 320,770 a 170,170 0,1,0 340,0 a 170,170 0,1,0 -340,0 Z M 320,290 a 170,170 0,1,0 340,0 a 170,170 0,1,0 -340,0 Z M 810,1250 a 170,170 0,1,0 340,0 a 170,170 0,1,0 -340,0 Z M 810,770 a 170,170 0,1,0 340,0 a 170,170 0,1,0 -340,0 Z M 810,290 a 170,170 0,1,0 340,0 a 170,170 0,1,0 -340,0 Z M 320,-190 a 170,170 0,1,0 340,0 a 170,170 0,1,0 -340,0 m 20,0 a 150,150 0,1,1 300,0 a 150,150 0,1,1 -300,0 Z M 810,-190 a 170,170 0,1,0 340,0 a 170,170 0,1,0 -340,0 m 20,0 a 150,150 0,1,1 300,0 a 150,150 0,1,1 -300,0 Z " />
      <glyph
        glyph-name="uni2840"
        unicode="&#x2840;"
        horiz-adv-x="1470"
        d="M 320,1250 a 170,170 0,1,0 340,0 a 170,170 0,1,0 -340,0 m 20,0 a 150,150 0,1,1 300,0 a 150,150 0,1,1 -300,0 Z M 320,770 a 170,170 0,1,0 340,0 a 170,170 0,1,0 -340,0 m 20,0 a 150,150 0,1,1 300,0 a 150,150 0,1,1 -300,0 Z M 320,290 a 170,170 0,1,0 340,0 a 170,170 0,1,0 -340,0 m 20,0 a 150,150 0,1,1 300,0 a 150,150 0,1,1 -300,0 Z M 810,1250 a 170,170 0,1,0 340,0 a 170,170 0,1,0 -340,0 m 20,0 a 150,150 0,1,1 300,0 a 150,150 0,1,1 -300,0 Z M 810,770 a 170,170 0,1,0 340,0 a 170,170 0,1,0 -340,0 m 20,0 a 150,150 0,1,1 300,0 a 150,150 0,1,1 -300,0 Z M 810,290 a 170,170 0,1,0 340,0 a 170,170 0,1,0 -340,0 m 20,0 a 150,150 0,1,1 300,0 a 150,150 0,1,1 -300,0 Z M 320,-190 a 170,170 0,1,0 340,0 a 170,170 0,1,0 -340,0 Z M 810,-190 a 170,170 0,1,0 340,0 a 170,170 0,1,0 -340,0 m 20,0 a 150,150 0,1,1 300,0 a 150,150 0,1,1 -300,0 Z " />
      <glyph
        glyph-name="uni2841"
        unicode="&#x2841;"
        horiz-adv-x="1470"
        d="M 320,1250 a 170,170 0,1,0 340,0 a 170,170 0,1,0 -340,0 Z M 320,770 a 170,170 0,1,0 340,0 a 170,170 0,1,0 -340,0 m 20,0 a 150,150 0,1,1 300,0 a 150,150 0,1,1 -300,0 Z M 320,290 a 170,170 0,1,0 340,0 a 170,170 0,1,0 -340,0 m 20,0 a 150,150 0,1,1 300,0 a 150,150 0,1,1 -300,0 Z M 810,1250 a 170,170 0,1,0 340,0 a 170,170 0,1,0 -340,0 m 20,0 a 150,150 0,1,1 300,0 a 150,150 0,1,1 -300,0 Z M 810,770 a 170,170 0,1,0 340,0 a 170,170 0,1,0 -340,0 m 20,0 a 150,150 0,1,1 300,0 a 150,150 0,1,1 -300,0 Z M 810,290 a 170,170 0,1,0 340,0 a 170,170 0,1,0 -340,0 m 20,0 a 150,150 0,1,1 300,0 a 150,150 0,1,1 -300,0 Z M 320,-190 a 170,170 0,1,0 340,0 a 170,170 0,1,0 -340,0 Z M 810,-190 a 170,170 0,1,0 340,0 a 170,170 0,1,0 -340,0 m 20,0 a 150,150 0,1,1 300,0 a 150,150 0,1,1 -300,0 Z " />
      <glyph
        glyph-name="uni2842"
        unicode="&#x2842;"
        horiz-adv-x="1470"
        d="M 320,1250 a 170,170 0,1,0 340,0 a 170,170 0,1,0 -340,0 m 20,0 a 150,150 0,1,1 300,0 a 150,150 0,1,1 -300,0 Z M 320,770 a 170,170 0,1,0 340,0 a 170,170 0,1,0 -340,0 Z M 320,290 a 170,170 0,1,0 340,0 a 170,170 0,1,0 -340,0 m 20,0 a 150,150 0,1,1 300,0 a 150,150 0,1,1 -300,0 Z M 810,1250 a 170,170 0,1,0 340,0 a 170,170 0,1,0 -340,0 m 20,0 a 150,150 0,1,1 300,0 a 150,150 0,1,1 -300,0 Z M 810,770 a 170,170 0,1,0 340,0 a 170,170 0,1,0 -340,0 m 20,0 a 150,150 0,1,1 300,0 a 150,150 0,1,1 -300,0 Z M 810,290 a 170,170 0,1,0 340,0 a 170,170 0,1,0 -340,0 m 20,0 a 150,150 0,1,1 300,0 a 150,150 0,1,1 -300,0 Z M 320,-190 a 170,170 0,1,0 340,0 a 170,170 0,1,0 -340,0 Z M 810,-190 a 170,170 0,1,0 340,0 a 170,170 0,1,0 -340,0 m 20,0 a 150,150 0,1,1 300,0 a 150,150 0,1,1 -300,0 Z " />
      <glyph
        glyph-name="uni2843"
        unicode="&#x2843;"
        horiz-adv-x="1470"
        d="M 320,1250 a 170,170 0,1,0 340,0 a 170,170 0,1,0 -340,0 Z M 320,770 a 170,170 0,1,0 340,0 a 170,170 0,1,0 -340,0 Z M 320,290 a 170,170 0,1,0 340,0 a 170,170 0,1,0 -340,0 m 20,0 a 150,150 0,1,1 300,0 a 150,150 0,1,1 -300,0 Z M 810,1250 a 170,170 0,1,0 340,0 a 170,170 0,1,0 -340,0 m 20,0 a 150,150 0,1,1 300,0 a 150,150 0,1,1 -300,0 Z M 810,770 a 170,170 0,1,0 340,0 a 170,170 0,1,0 -340,0 m 20,0 a 150,150 0,1,1 300,0 a 150,150 0,1,1 -300,0 Z M 810,290 a 170,170 0,1,0 340,0 a 170,170 0,1,0 -340,0 m 20,0 a 150,150 0,1,1 300,0 a 150,150 0,1,1 -300,0 Z M 320,-190 a 170,170 0,1,0 340,0 a 170,170 0,1,0 -340,0 Z M 810,-190 a 170,170 0,1,0 340,0 a 170,170 0,1,0 -340,0 m 20,0 a 150,150 0,1,1 300,0 a 150,150 0,1,1 -300,0 Z " />
      <glyph
        glyph-name="uni2844"
        unicode="&#x2844;"
        horiz-adv-x="1470"
        d="M 320,1250 a 170,170 0,1,0 340,0 a 170,170 0,1,0 -340,0 m 20,0 a 150,150 0,1,1 300,0 a 150,150 0,1,1 -300,0 Z M 320,770 a 170,170 0,1,0 340,0 a 170,170 0,1,0 -340,0 m 20,0 a 150,150 0,1,1 300,0 a 150,150 0,1,1 -300,0 Z M 320,290 a 170,170 0,1,0 340,0 a 170,170 0,1,0 -340,0 Z M 810,1250 a 170,170 0,1,0 340,0 a 170,170 0,1,0 -340,0 m 20,0 a 150,150 0,1,1 300,0 a 150,150 0,1,1 -300,0 Z M 810,770 a 170,170 0,1,0 340,0 a 170,170 0,1,0 -340,0 m 20,0 a 150,150 0,1,1 300,0 a 150,150 0,1,1 -300,0 Z M 810,290 a 170,170 0,1,0 340,0 a 170,170 0,1,0 -340,0 m 20,0 a 150,150 0,1,1 300,0 a 150,150 0,1,1 -300,0 Z M 320,-190 a 170,170 0,1,0 340,0 a 170,170 0,1,0 -340,0 Z M 810,-190 a 170,170 0,1,0 340,0 a 170,170 0,1,0 -340,0 m 20,0 a 150,150 0,1,1 300,0 a 150,150 0,1,1 -300,0 Z " />
      <glyph
        glyph-name="uni2845"
        unicode="&#x2845;"
        horiz-adv-x="1470"
        d="M 320,1250 a 170,170 0,1,0 340,0 a 170,170 0,1,0 -340,0 Z M 320,770 a 170,170 0,1,0 340,0 a 170,170 0,1,0 -340,0 m 20,0 a 150,150 0,1,1 300,0 a 150,150 0,1,1 -300,0 Z M 320,290 a 170,170 0,1,0 340,0 a 170,170 0,1,0 -340,0 Z M 810,1250 a 170,170 0,1,0 340,0 a 170,170 0,1,0 -340,0 m 20,0 a 150,150 0,1,1 300,0 a 150,150 0,1,1 -300,0 Z M 810,770 a 170,170 0,1,0 340,0 a 170,170 0,1,0 -340,0 m 20,0 a 150,150 0,1,1 300,0 a 150,150 0,1,1 -300,0 Z M 810,290 a 170,170 0,1,0 340,0 a 170,170 0,1,0 -340,0 m 20,0 a 150,150 0,1,1 300,0 a 150,150 0,1,1 -300,0 Z M 320,-190 a 170,170 0,1,0 340,0 a 170,170 0,1,0 -340,0 Z M 810,-190 a 170,170 0,1,0 340,0 a 170,170 0,1,0 -340,0 m 20,0 a 150,150 0,1,1 300,0 a 150,150 0,1,1 -300,0 Z " />
      <glyph
        glyph-name="uni2846"
        unicode="&#x2846;"
        horiz-adv-x="1470"
        d="M 320,1250 a 170,170 0,1,0 340,0 a 170,170 0,1,0 -340,0 m 20,0 a 150,150 0,1,1 300,0 a 150,150 0,1,1 -300,0 Z M 320,770 a 170,170 0,1,0 340,0 a 170,170 0,1,0 -340,0 Z M 320,290 a 170,170 0,1,0 340,0 a 170,170 0,1,0 -340,0 Z M 810,1250 a 170,170 0,1,0 340,0 a 170,170 0,1,0 -340,0 m 20,0 a 150,150 0,1,1 300,0 a 150,150 0,1,1 -300,0 Z M 810,770 a 170,170 0,1,0 340,0 a 170,170 0,1,0 -340,0 m 20,0 a 150,150 0,1,1 300,0 a 150,150 0,1,1 -300,0 Z M 810,290 a 170,170 0,1,0 340,0 a 170,170 0,1,0 -340,0 m 20,0 a 150,150 0,1,1 300,0 a 150,150 0,1,1 -300,0 Z M 320,-190 a 170,170 0,1,0 340,0 a 170,170 0,1,0 -340,0 Z M 810,-190 a 170,170 0,1,0 340,0 a 170,170 0,1,0 -340,0 m 20,0 a 150,150 0,1,1 300,0 a 150,150 0,1,1 -300,0 Z " />
      <glyph
        glyph-name="uni2847"
        unicode="&#x2847;"
        horiz-adv-x="1470"
        d="M 320,1250 a 170,170 0,1,0 340,0 a 170,170 0,1,0 -340,0 Z M 320,770 a 170,170 0,1,0 340,0 a 170,170 0,1,0 -340,0 Z M 320,290 a 170,170 0,1,0 340,0 a 170,170 0,1,0 -340,0 Z M 810,1250 a 170,170 0,1,0 340,0 a 170,170 0,1,0 -340,0 m 20,0 a 150,150 0,1,1 300,0 a 150,150 0,1,1 -300,0 Z M 810,770 a 170,170 0,1,0 340,0 a 170,170 0,1,0 -340,0 m 20,0 a 150,150 0,1,1 300,0 a 150,150 0,1,1 -300,0 Z M 810,290 a 170,170 0,1,0 340,0 a 170,170 0,1,0 -340,0 m 20,0 a 150,150 0,1,1 300,0 a 150,150 0,1,1 -300,0 Z M 320,-190 a 170,170 0,1,0 340,0 a 170,170 0,1,0 -340,0 Z M 810,-190 a 170,170 0,1,0 340,0 a 170,170 0,1,0 -340,0 m 20,0 a 150,150 0,1,1 300,0 a 150,150 0,1,1 -300,0 Z " />
      <glyph
        glyph-name="uni2848"
        unicode="&#x2848;"
        horiz-adv-x="1470"
        d="M 320,1250 a 170,170 0,1,0 340,0 a 170,170 0,1,0 -340,0 m 20,0 a 150,150 0,1,1 300,0 a 150,150 0,1,1 -300,0 Z M 320,770 a 170,170 0,1,0 340,0 a 170,170 0,1,0 -340,0 m 20,0 a 150,150 0,1,1 300,0 a 150,150 0,1,1 -300,0 Z M 320,290 a 170,170 0,1,0 340,0 a 170,170 0,1,0 -340,0 m 20,0 a 150,150 0,1,1 300,0 a 150,150 0,1,1 -300,0 Z M 810,1250 a 170,170 0,1,0 340,0 a 170,170 0,1,0 -340,0 Z M 810,770 a 170,170 0,1,0 340,0 a 170,170 0,1,0 -340,0 m 20,0 a 150,150 0,1,1 300,0 a 150,150 0,1,1 -300,0 Z M 810,290 a 170,170 0,1,0 340,0 a 170,170 0,1,0 -340,0 m 20,0 a 150,150 0,1,1 300,0 a 150,150 0,1,1 -300,0 Z M 320,-190 a 170,170 0,1,0 340,0 a 170,170 0,1,0 -340,0 Z M 810,-190 a 170,170 0,1,0 340,0 a 170,170 0,1,0 -340,0 m 20,0 a 150,150 0,1,1 300,0 a 150,150 0,1,1 -300,0 Z " />
      <glyph
        glyph-name="uni2849"
        unicode="&#x2849;"
        horiz-adv-x="1470"
        d="M 320,1250 a 170,170 0,1,0 340,0 a 170,170 0,1,0 -340,0 Z M 320,770 a 170,170 0,1,0 340,0 a 170,170 0,1,0 -340,0 m 20,0 a 150,150 0,1,1 300,0 a 150,150 0,1,1 -300,0 Z M 320,290 a 170,170 0,1,0 340,0 a 170,170 0,1,0 -340,0 m 20,0 a 150,150 0,1,1 300,0 a 150,150 0,1,1 -300,0 Z M 810,1250 a 170,170 0,1,0 340,0 a 170,170 0,1,0 -340,0 Z M 810,770 a 170,170 0,1,0 340,0 a 170,170 0,1,0 -340,0 m 20,0 a 150,150 0,1,1 300,0 a 150,150 0,1,1 -300,0 Z M 810,290 a 170,170 0,1,0 340,0 a 170,170 0,1,0 -340,0 m 20,0 a 150,150 0,1,1 300,0 a 150,150 0,1,1 -300,0 Z M 320,-190 a 170,170 0,1,0 340,0 a 170,170 0,1,0 -340,0 Z M 810,-190 a 170,170 0,1,0 340,0 a 170,170 0,1,0 -340,0 m 20,0 a 150,150 0,1,1 300,0 a 150,150 0,1,1 -300,0 Z " />
      <glyph
        glyph-name="uni284A"
        unicode="&#x284a;"
        horiz-adv-x="1470"
        d="M 320,1250 a 170,170 0,1,0 340,0 a 170,170 0,1,0 -340,0 m 20,0 a 150,150 0,1,1 300,0 a 150,150 0,1,1 -300,0 Z M 320,770 a 170,170 0,1,0 340,0 a 170,170 0,1,0 -340,0 Z M 320,290 a 170,170 0,1,0 340,0 a 170,170 0,1,0 -340,0 m 20,0 a 150,150 0,1,1 300,0 a 150,150 0,1,1 -300,0 Z M 810,1250 a 170,170 0,1,0 340,0 a 170,170 0,1,0 -340,0 Z M 810,770 a 170,170 0,1,0 340,0 a 170,170 0,1,0 -340,0 m 20,0 a 150,150 0,1,1 300,0 a 150,150 0,1,1 -300,0 Z M 810,290 a 170,170 0,1,0 340,0 a 170,170 0,1,0 -340,0 m 20,0 a 150,150 0,1,1 300,0 a 150,150 0,1,1 -300,0 Z M 320,-190 a 170,170 0,1,0 340,0 a 170,170 0,1,0 -340,0 Z M 810,-190 a 170,170 0,1,0 340,0 a 170,170 0,1,0 -340,0 m 20,0 a 150,150 0,1,1 300,0 a 150,150 0,1,1 -300,0 Z " />
      <glyph
        glyph-name="uni284B"
        unicode="&#x284b;"
        horiz-adv-x="1470"
        d="M 320,1250 a 170,170 0,1,0 340,0 a 170,170 0,1,0 -340,0 Z M 320,770 a 170,170 0,1,0 340,0 a 170,170 0,1,0 -340,0 Z M 320,290 a 170,170 0,1,0 340,0 a 170,170 0,1,0 -340,0 m 20,0 a 150,150 0,1,1 300,0 a 150,150 0,1,1 -300,0 Z M 810,1250 a 170,170 0,1,0 340,0 a 170,170 0,1,0 -340,0 Z M 810,770 a 170,170 0,1,0 340,0 a 170,170 0,1,0 -340,0 m 20,0 a 150,150 0,1,1 300,0 a 150,150 0,1,1 -300,0 Z M 810,290 a 170,170 0,1,0 340,0 a 170,170 0,1,0 -340,0 m 20,0 a 150,150 0,1,1 300,0 a 150,150 0,1,1 -300,0 Z M 320,-190 a 170,170 0,1,0 340,0 a 170,170 0,1,0 -340,0 Z M 810,-190 a 170,170 0,1,0 340,0 a 170,170 0,1,0 -340,0 m 20,0 a 150,150 0,1,1 300,0 a 150,150 0,1,1 -300,0 Z " />
      <glyph
        glyph-name="uni284C"
        unicode="&#x284c;"
        horiz-adv-x="1470"
        d="M 320,1250 a 170,170 0,1,0 340,0 a 170,170 0,1,0 -340,0 m 20,0 a 150,150 0,1,1 300,0 a 150,150 0,1,1 -300,0 Z M 320,770 a 170,170 0,1,0 340,0 a 170,170 0,1,0 -340,0 m 20,0 a 150,150 0,1,1 300,0 a 150,150 0,1,1 -300,0 Z M 320,290 a 170,170 0,1,0 340,0 a 170,170 0,1,0 -340,0 Z M 810,1250 a 170,170 0,1,0 340,0 a 170,170 0,1,0 -340,0 Z M 810,770 a 170,170 0,1,0 340,0 a 170,170 0,1,0 -340,0 m 20,0 a 150,150 0,1,1 300,0 a 150,150 0,1,1 -300,0 Z M 810,290 a 170,170 0,1,0 340,0 a 170,170 0,1,0 -340,0 m 20,0 a 150,150 0,1,1 300,0 a 150,150 0,1,1 -300,0 Z M 320,-190 a 170,170 0,1,0 340,0 a 170,170 0,1,0 -340,0 Z M 810,-190 a 170,170 0,1,0 340,0 a 170,170 0,1,0 -340,0 m 20,0 a 150,150 0,1,1 300,0 a 150,150 0,1,1 -300,0 Z " />
      <glyph
        glyph-name="uni284D"
        unicode="&#x284d;"
        horiz-adv-x="1470"
        d="M 320,1250 a 170,170 0,1,0 340,0 a 170,170 0,1,0 -340,0 Z M 320,770 a 170,170 0,1,0 340,0 a 170,170 0,1,0 -340,0 m 20,0 a 150,150 0,1,1 300,0 a 150,150 0,1,1 -300,0 Z M 320,290 a 170,170 0,1,0 340,0 a 170,170 0,1,0 -340,0 Z M 810,1250 a 170,170 0,1,0 340,0 a 170,170 0,1,0 -340,0 Z M 810,770 a 170,170 0,1,0 340,0 a 170,170 0,1,0 -340,0 m 20,0 a 150,150 0,1,1 300,0 a 150,150 0,1,1 -300,0 Z M 810,290 a 170,170 0,1,0 340,0 a 170,170 0,1,0 -340,0 m 20,0 a 150,150 0,1,1 300,0 a 150,150 0,1,1 -300,0 Z M 320,-190 a 170,170 0,1,0 340,0 a 170,170 0,1,0 -340,0 Z M 810,-190 a 170,170 0,1,0 340,0 a 170,170 0,1,0 -340,0 m 20,0 a 150,150 0,1,1 300,0 a 150,150 0,1,1 -300,0 Z " />
      <glyph
        glyph-name="uni284E"
        unicode="&#x284e;"
        horiz-adv-x="1470"
        d="M 320,1250 a 170,170 0,1,0 340,0 a 170,170 0,1,0 -340,0 m 20,0 a 150,150 0,1,1 300,0 a 150,150 0,1,1 -300,0 Z M 320,770 a 170,170 0,1,0 340,0 a 170,170 0,1,0 -340,0 Z M 320,290 a 170,170 0,1,0 340,0 a 170,170 0,1,0 -340,0 Z M 810,1250 a 170,170 0,1,0 340,0 a 170,170 0,1,0 -340,0 Z M 810,770 a 170,170 0,1,0 340,0 a 170,170 0,1,0 -340,0 m 20,0 a 150,150 0,1,1 300,0 a 150,150 0,1,1 -300,0 Z M 810,290 a 170,170 0,1,0 340,0 a 170,170 0,1,0 -340,0 m 20,0 a 150,150 0,1,1 300,0 a 150,150 0,1,1 -300,0 Z M 320,-190 a 170,170 0,1,0 340,0 a 170,170 0,1,0 -340,0 Z M 810,-190 a 170,170 0,1,0 340,0 a 170,170 0,1,0 -340,0 m 20,0 a 150,150 0,1,1 300,0 a 150,150 0,1,1 -300,0 Z " />
      <glyph
        glyph-name="uni284F"
        unicode="&#x284f;"
        horiz-adv-x="1470"
        d="M 320,1250 a 170,170 0,1,0 340,0 a 170,170 0,1,0 -340,0 Z M 320,770 a 170,170 0,1,0 340,0 a 170,170 0,1,0 -340,0 Z M 320,290 a 170,170 0,1,0 340,0 a 170,170 0,1,0 -340,0 Z M 810,1250 a 170,170 0,1,0 340,0 a 170,170 0,1,0 -340,0 Z M 810,770 a 170,170 0,1,0 340,0 a 170,170 0,1,0 -340,0 m 20,0 a 150,150 0,1,1 300,0 a 150,150 0,1,1 -300,0 Z M 810,290 a 170,170 0,1,0 340,0 a 170,170 0,1,0 -340,0 m 20,0 a 150,150 0,1,1 300,0 a 150,150 0,1,1 -300,0 Z M 320,-190 a 170,170 0,1,0 340,0 a 170,170 0,1,0 -340,0 Z M 810,-190 a 170,170 0,1,0 340,0 a 170,170 0,1,0 -340,0 m 20,0 a 150,150 0,1,1 300,0 a 150,150 0,1,1 -300,0 Z " />
      <glyph
        glyph-name="uni2850"
        unicode="&#x2850;"
        horiz-adv-x="1470"
        d="M 320,1250 a 170,170 0,1,0 340,0 a 170,170 0,1,0 -340,0 m 20,0 a 150,150 0,1,1 300,0 a 150,150 0,1,1 -300,0 Z M 320,770 a 170,170 0,1,0 340,0 a 170,170 0,1,0 -340,0 m 20,0 a 150,150 0,1,1 300,0 a 150,150 0,1,1 -300,0 Z M 320,290 a 170,170 0,1,0 340,0 a 170,170 0,1,0 -340,0 m 20,0 a 150,150 0,1,1 300,0 a 150,150 0,1,1 -300,0 Z M 810,1250 a 170,170 0,1,0 340,0 a 170,170 0,1,0 -340,0 m 20,0 a 150,150 0,1,1 300,0 a 150,150 0,1,1 -300,0 Z M 810,770 a 170,170 0,1,0 340,0 a 170,170 0,1,0 -340,0 Z M 810,290 a 170,170 0,1,0 340,0 a 170,170 0,1,0 -340,0 m 20,0 a 150,150 0,1,1 300,0 a 150,150 0,1,1 -300,0 Z M 320,-190 a 170,170 0,1,0 340,0 a 170,170 0,1,0 -340,0 Z M 810,-190 a 170,170 0,1,0 340,0 a 170,170 0,1,0 -340,0 m 20,0 a 150,150 0,1,1 300,0 a 150,150 0,1,1 -300,0 Z " />
      <glyph
        glyph-name="uni2851"
        unicode="&#x2851;"
        horiz-adv-x="1470"
        d="M 320,1250 a 170,170 0,1,0 340,0 a 170,170 0,1,0 -340,0 Z M 320,770 a 170,170 0,1,0 340,0 a 170,170 0,1,0 -340,0 m 20,0 a 150,150 0,1,1 300,0 a 150,150 0,1,1 -300,0 Z M 320,290 a 170,170 0,1,0 340,0 a 170,170 0,1,0 -340,0 m 20,0 a 150,150 0,1,1 300,0 a 150,150 0,1,1 -300,0 Z M 810,1250 a 170,170 0,1,0 340,0 a 170,170 0,1,0 -340,0 m 20,0 a 150,150 0,1,1 300,0 a 150,150 0,1,1 -300,0 Z M 810,770 a 170,170 0,1,0 340,0 a 170,170 0,1,0 -340,0 Z M 810,290 a 170,170 0,1,0 340,0 a 170,170 0,1,0 -340,0 m 20,0 a 150,150 0,1,1 300,0 a 150,150 0,1,1 -300,0 Z M 320,-190 a 170,170 0,1,0 340,0 a 170,170 0,1,0 -340,0 Z M 810,-190 a 170,170 0,1,0 340,0 a 170,170 0,1,0 -340,0 m 20,0 a 150,150 0,1,1 300,0 a 150,150 0,1,1 -300,0 Z " />
      <glyph
        glyph-name="uni2852"
        unicode="&#x2852;"
        horiz-adv-x="1470"
        d="M 320,1250 a 170,170 0,1,0 340,0 a 170,170 0,1,0 -340,0 m 20,0 a 150,150 0,1,1 300,0 a 150,150 0,1,1 -300,0 Z M 320,770 a 170,170 0,1,0 340,0 a 170,170 0,1,0 -340,0 Z M 320,290 a 170,170 0,1,0 340,0 a 170,170 0,1,0 -340,0 m 20,0 a 150,150 0,1,1 300,0 a 150,150 0,1,1 -300,0 Z M 810,1250 a 170,170 0,1,0 340,0 a 170,170 0,1,0 -340,0 m 20,0 a 150,150 0,1,1 300,0 a 150,150 0,1,1 -300,0 Z M 810,770 a 170,170 0,1,0 340,0 a 170,170 0,1,0 -340,0 Z M 810,290 a 170,170 0,1,0 340,0 a 170,170 0,1,0 -340,0 m 20,0 a 150,150 0,1,1 300,0 a 150,150 0,1,1 -300,0 Z M 320,-190 a 170,170 0,1,0 340,0 a 170,170 0,1,0 -340,0 Z M 810,-190 a 170,170 0,1,0 340,0 a 170,170 0,1,0 -340,0 m 20,0 a 150,150 0,1,1 300,0 a 150,150 0,1,1 -300,0 Z " />
      <glyph
        glyph-name="uni2853"
        unicode="&#x2853;"
        horiz-adv-x="1470"
        d="M 320,1250 a 170,170 0,1,0 340,0 a 170,170 0,1,0 -340,0 Z M 320,770 a 170,170 0,1,0 340,0 a 170,170 0,1,0 -340,0 Z M 320,290 a 170,170 0,1,0 340,0 a 170,170 0,1,0 -340,0 m 20,0 a 150,150 0,1,1 300,0 a 150,150 0,1,1 -300,0 Z M 810,1250 a 170,170 0,1,0 340,0 a 170,170 0,1,0 -340,0 m 20,0 a 150,150 0,1,1 300,0 a 150,150 0,1,1 -300,0 Z M 810,770 a 170,170 0,1,0 340,0 a 170,170 0,1,0 -340,0 Z M 810,290 a 170,170 0,1,0 340,0 a 170,170 0,1,0 -340,0 m 20,0 a 150,150 0,1,1 300,0 a 150,150 0,1,1 -300,0 Z M 320,-190 a 170,170 0,1,0 340,0 a 170,170 0,1,0 -340,0 Z M 810,-190 a 170,170 0,1,0 340,0 a 170,170 0,1,0 -340,0 m 20,0 a 150,150 0,1,1 300,0 a 150,150 0,1,1 -300,0 Z " />
      <glyph
        glyph-name="uni2854"
        unicode="&#x2854;"
        horiz-adv-x="1470"
        d="M 320,1250 a 170,170 0,1,0 340,0 a 170,170 0,1,0 -340,0 m 20,0 a 150,150 0,1,1 300,0 a 150,150 0,1,1 -300,0 Z M 320,770 a 170,170 0,1,0 340,0 a 170,170 0,1,0 -340,0 m 20,0 a 150,150 0,1,1 300,0 a 150,150 0,1,1 -300,0 Z M 320,290 a 170,170 0,1,0 340,0 a 170,170 0,1,0 -340,0 Z M 810,1250 a 170,170 0,1,0 340,0 a 170,170 0,1,0 -340,0 m 20,0 a 150,150 0,1,1 300,0 a 150,150 0,1,1 -300,0 Z M 810,770 a 170,170 0,1,0 340,0 a 170,170 0,1,0 -340,0 Z M 810,290 a 170,170 0,1,0 340,0 a 170,170 0,1,0 -340,0 m 20,0 a 150,150 0,1,1 300,0 a 150,150 0,1,1 -300,0 Z M 320,-190 a 170,170 0,1,0 340,0 a 170,170 0,1,0 -340,0 Z M 810,-190 a 170,170 0,1,0 340,0 a 170,170 0,1,0 -340,0 m 20,0 a 150,150 0,1,1 300,0 a 150,150 0,1,1 -300,0 Z " />
      <glyph
        glyph-name="uni2855"
        unicode="&#x2855;"
        horiz-adv-x="1470"
        d="M 320,1250 a 170,170 0,1,0 340,0 a 170,170 0,1,0 -340,0 Z M 320,770 a 170,170 0,1,0 340,0 a 170,170 0,1,0 -340,0 m 20,0 a 150,150 0,1,1 300,0 a 150,150 0,1,1 -300,0 Z M 320,290 a 170,170 0,1,0 340,0 a 170,170 0,1,0 -340,0 Z M 810,1250 a 170,170 0,1,0 340,0 a 170,170 0,1,0 -340,0 m 20,0 a 150,150 0,1,1 300,0 a 150,150 0,1,1 -300,0 Z M 810,770 a 170,170 0,1,0 340,0 a 170,170 0,1,0 -340,0 Z M 810,290 a 170,170 0,1,0 340,0 a 170,170 0,1,0 -340,0 m 20,0 a 150,150 0,1,1 300,0 a 150,150 0,1,1 -300,0 Z M 320,-190 a 170,170 0,1,0 340,0 a 170,170 0,1,0 -340,0 Z M 810,-190 a 170,170 0,1,0 340,0 a 170,170 0,1,0 -340,0 m 20,0 a 150,150 0,1,1 300,0 a 150,150 0,1,1 -300,0 Z " />
      <glyph
        glyph-name="uni2856"
        unicode="&#x2856;"
        horiz-adv-x="1470"
        d="M 320,1250 a 170,170 0,1,0 340,0 a 170,170 0,1,0 -340,0 m 20,0 a 150,150 0,1,1 300,0 a 150,150 0,1,1 -300,0 Z M 320,770 a 170,170 0,1,0 340,0 a 170,170 0,1,0 -340,0 Z M 320,290 a 170,170 0,1,0 340,0 a 170,170 0,1,0 -340,0 Z M 810,1250 a 170,170 0,1,0 340,0 a 170,170 0,1,0 -340,0 m 20,0 a 150,150 0,1,1 300,0 a 150,150 0,1,1 -300,0 Z M 810,770 a 170,170 0,1,0 340,0 a 170,170 0,1,0 -340,0 Z M 810,290 a 170,170 0,1,0 340,0 a 170,170 0,1,0 -340,0 m 20,0 a 150,150 0,1,1 300,0 a 150,150 0,1,1 -300,0 Z M 320,-190 a 170,170 0,1,0 340,0 a 170,170 0,1,0 -340,0 Z M 810,-190 a 170,170 0,1,0 340,0 a 170,170 0,1,0 -340,0 m 20,0 a 150,150 0,1,1 300,0 a 150,150 0,1,1 -300,0 Z " />
      <glyph
        glyph-name="uni2857"
        unicode="&#x2857;"
        horiz-adv-x="1470"
        d="M 320,1250 a 170,170 0,1,0 340,0 a 170,170 0,1,0 -340,0 Z M 320,770 a 170,170 0,1,0 340,0 a 170,170 0,1,0 -340,0 Z M 320,290 a 170,170 0,1,0 340,0 a 170,170 0,1,0 -340,0 Z M 810,1250 a 170,170 0,1,0 340,0 a 170,170 0,1,0 -340,0 m 20,0 a 150,150 0,1,1 300,0 a 150,150 0,1,1 -300,0 Z M 810,770 a 170,170 0,1,0 340,0 a 170,170 0,1,0 -340,0 Z M 810,290 a 170,170 0,1,0 340,0 a 170,170 0,1,0 -340,0 m 20,0 a 150,150 0,1,1 300,0 a 150,150 0,1,1 -300,0 Z M 320,-190 a 170,170 0,1,0 340,0 a 170,170 0,1,0 -340,0 Z M 810,-190 a 170,170 0,1,0 340,0 a 170,170 0,1,0 -340,0 m 20,0 a 150,150 0,1,1 300,0 a 150,150 0,1,1 -300,0 Z " />
      <glyph
        glyph-name="uni2858"
        unicode="&#x2858;"
        horiz-adv-x="1470"
        d="M 320,1250 a 170,170 0,1,0 340,0 a 170,170 0,1,0 -340,0 m 20,0 a 150,150 0,1,1 300,0 a 150,150 0,1,1 -300,0 Z M 320,770 a 170,170 0,1,0 340,0 a 170,170 0,1,0 -340,0 m 20,0 a 150,150 0,1,1 300,0 a 150,150 0,1,1 -300,0 Z M 320,290 a 170,170 0,1,0 340,0 a 170,170 0,1,0 -340,0 m 20,0 a 150,150 0,1,1 300,0 a 150,150 0,1,1 -300,0 Z M 810,1250 a 170,170 0,1,0 340,0 a 170,170 0,1,0 -340,0 Z M 810,770 a 170,170 0,1,0 340,0 a 170,170 0,1,0 -340,0 Z M 810,290 a 170,170 0,1,0 340,0 a 170,170 0,1,0 -340,0 m 20,0 a 150,150 0,1,1 300,0 a 150,150 0,1,1 -300,0 Z M 320,-190 a 170,170 0,1,0 340,0 a 170,170 0,1,0 -340,0 Z M 810,-190 a 170,170 0,1,0 340,0 a 170,170 0,1,0 -340,0 m 20,0 a 150,150 0,1,1 300,0 a 150,150 0,1,1 -300,0 Z " />
      <glyph
        glyph-name="uni2859"
        unicode="&#x2859;"
        horiz-adv-x="1470"
        d="M 320,1250 a 170,170 0,1,0 340,0 a 170,170 0,1,0 -340,0 Z M 320,770 a 170,170 0,1,0 340,0 a 170,170 0,1,0 -340,0 m 20,0 a 150,150 0,1,1 300,0 a 150,150 0,1,1 -300,0 Z M 320,290 a 170,170 0,1,0 340,0 a 170,170 0,1,0 -340,0 m 20,0 a 150,150 0,1,1 300,0 a 150,150 0,1,1 -300,0 Z M 810,1250 a 170,170 0,1,0 340,0 a 170,170 0,1,0 -340,0 Z M 810,770 a 170,170 0,1,0 340,0 a 170,170 0,1,0 -340,0 Z M 810,290 a 170,170 0,1,0 340,0 a 170,170 0,1,0 -340,0 m 20,0 a 150,150 0,1,1 300,0 a 150,150 0,1,1 -300,0 Z M 320,-190 a 170,170 0,1,0 340,0 a 170,170 0,1,0 -340,0 Z M 810,-190 a 170,170 0,1,0 340,0 a 170,170 0,1,0 -340,0 m 20,0 a 150,150 0,1,1 300,0 a 150,150 0,1,1 -300,0 Z " />
      <glyph
        glyph-name="uni285A"
        unicode="&#x285a;"
        horiz-adv-x="1470"
        d="M 320,1250 a 170,170 0,1,0 340,0 a 170,170 0,1,0 -340,0 m 20,0 a 150,150 0,1,1 300,0 a 150,150 0,1,1 -300,0 Z M 320,770 a 170,170 0,1,0 340,0 a 170,170 0,1,0 -340,0 Z M 320,290 a 170,170 0,1,0 340,0 a 170,170 0,1,0 -340,0 m 20,0 a 150,150 0,1,1 300,0 a 150,150 0,1,1 -300,0 Z M 810,1250 a 170,170 0,1,0 340,0 a 170,170 0,1,0 -340,0 Z M 810,770 a 170,170 0,1,0 340,0 a 170,170 0,1,0 -340,0 Z M 810,290 a 170,170 0,1,0 340,0 a 170,170 0,1,0 -340,0 m 20,0 a 150,150 0,1,1 300,0 a 150,150 0,1,1 -300,0 Z M 320,-190 a 170,170 0,1,0 340,0 a 170,170 0,1,0 -340,0 Z M 810,-190 a 170,170 0,1,0 340,0 a 170,170 0,1,0 -340,0 m 20,0 a 150,150 0,1,1 300,0 a 150,150 0,1,1 -300,0 Z " />
      <glyph
        glyph-name="uni285B"
        unicode="&#x285b;"
        horiz-adv-x="1470"
        d="M 320,1250 a 170,170 0,1,0 340,0 a 170,170 0,1,0 -340,0 Z M 320,770 a 170,170 0,1,0 340,0 a 170,170 0,1,0 -340,0 Z M 320,290 a 170,170 0,1,0 340,0 a 170,170 0,1,0 -340,0 m 20,0 a 150,150 0,1,1 300,0 a 150,150 0,1,1 -300,0 Z M 810,1250 a 170,170 0,1,0 340,0 a 170,170 0,1,0 -340,0 Z M 810,770 a 170,170 0,1,0 340,0 a 170,170 0,1,0 -340,0 Z M 810,290 a 170,170 0,1,0 340,0 a 170,170 0,1,0 -340,0 m 20,0 a 150,150 0,1,1 300,0 a 150,150 0,1,1 -300,0 Z M 320,-190 a 170,170 0,1,0 340,0 a 170,170 0,1,0 -340,0 Z M 810,-190 a 170,170 0,1,0 340,0 a 170,170 0,1,0 -340,0 m 20,0 a 150,150 0,1,1 300,0 a 150,150 0,1,1 -300,0 Z " />
      <glyph
        glyph-name="uni285C"
        unicode="&#x285c;"
        horiz-adv-x="1470"
        d="M 320,1250 a 170,170 0,1,0 340,0 a 170,170 0,1,0 -340,0 m 20,0 a 150,150 0,1,1 300,0 a 150,150 0,1,1 -300,0 Z M 320,770 a 170,170 0,1,0 340,0 a 170,170 0,1,0 -340,0 m 20,0 a 150,150 0,1,1 300,0 a 150,150 0,1,1 -300,0 Z M 320,290 a 170,170 0,1,0 340,0 a 170,170 0,1,0 -340,0 Z M 810,1250 a 170,170 0,1,0 340,0 a 170,170 0,1,0 -340,0 Z M 810,770 a 170,170 0,1,0 340,0 a 170,170 0,1,0 -340,0 Z M 810,290 a 170,170 0,1,0 340,0 a 170,170 0,1,0 -340,0 m 20,0 a 150,150 0,1,1 300,0 a 150,150 0,1,1 -300,0 Z M 320,-190 a 170,170 0,1,0 340,0 a 170,170 0,1,0 -340,0 Z M 810,-190 a 170,170 0,1,0 340,0 a 170,170 0,1,0 -340,0 m 20,0 a 150,150 0,1,1 300,0 a 150,150 0,1,1 -300,0 Z " />
      <glyph
        glyph-name="uni285D"
        unicode="&#x285d;"
        horiz-adv-x="1470"
        d="M 320,1250 a 170,170 0,1,0 340,0 a 170,170 0,1,0 -340,0 Z M 320,770 a 170,170 0,1,0 340,0 a 170,170 0,1,0 -340,0 m 20,0 a 150,150 0,1,1 300,0 a 150,150 0,1,1 -300,0 Z M 320,290 a 170,170 0,1,0 340,0 a 170,170 0,1,0 -340,0 Z M 810,1250 a 170,170 0,1,0 340,0 a 170,170 0,1,0 -340,0 Z M 810,770 a 170,170 0,1,0 340,0 a 170,170 0,1,0 -340,0 Z M 810,290 a 170,170 0,1,0 340,0 a 170,170 0,1,0 -340,0 m 20,0 a 150,150 0,1,1 300,0 a 150,150 0,1,1 -300,0 Z M 320,-190 a 170,170 0,1,0 340,0 a 170,170 0,1,0 -340,0 Z M 810,-190 a 170,170 0,1,0 340,0 a 170,170 0,1,0 -340,0 m 20,0 a 150,150 0,1,1 300,0 a 150,150 0,1,1 -300,0 Z " />
      <glyph
        glyph-name="uni285E"
        unicode="&#x285e;"
        horiz-adv-x="1470"
        d="M 320,1250 a 170,170 0,1,0 340,0 a 170,170 0,1,0 -340,0 m 20,0 a 150,150 0,1,1 300,0 a 150,150 0,1,1 -300,0 Z M 320,770 a 170,170 0,1,0 340,0 a 170,170 0,1,0 -340,0 Z M 320,290 a 170,170 0,1,0 340,0 a 170,170 0,1,0 -340,0 Z M 810,1250 a 170,170 0,1,0 340,0 a 170,170 0,1,0 -340,0 Z M 810,770 a 170,170 0,1,0 340,0 a 170,170 0,1,0 -340,0 Z M 810,290 a 170,170 0,1,0 340,0 a 170,170 0,1,0 -340,0 m 20,0 a 150,150 0,1,1 300,0 a 150,150 0,1,1 -300,0 Z M 320,-190 a 170,170 0,1,0 340,0 a 170,170 0,1,0 -340,0 Z M 810,-190 a 170,170 0,1,0 340,0 a 170,170 0,1,0 -340,0 m 20,0 a 150,150 0,1,1 300,0 a 150,150 0,1,1 -300,0 Z " />
      <glyph
        glyph-name="uni285F"
        unicode="&#x285f;"
        horiz-adv-x="1470"
        d="M 320,1250 a 170,170 0,1,0 340,0 a 170,170 0,1,0 -340,0 Z M 320,770 a 170,170 0,1,0 340,0 a 170,170 0,1,0 -340,0 Z M 320,290 a 170,170 0,1,0 340,0 a 170,170 0,1,0 -340,0 Z M 810,1250 a 170,170 0,1,0 340,0 a 170,170 0,1,0 -340,0 Z M 810,770 a 170,170 0,1,0 340,0 a 170,170 0,1,0 -340,0 Z M 810,290 a 170,170 0,1,0 340,0 a 170,170 0,1,0 -340,0 m 20,0 a 150,150 0,1,1 300,0 a 150,150 0,1,1 -300,0 Z M 320,-190 a 170,170 0,1,0 340,0 a 170,170 0,1,0 -340,0 Z M 810,-190 a 170,170 0,1,0 340,0 a 170,170 0,1,0 -340,0 m 20,0 a 150,150 0,1,1 300,0 a 150,150 0,1,1 -300,0 Z " />
      <glyph
        glyph-name="uni2860"
        unicode="&#x2860;"
        horiz-adv-x="1470"
        d="M 320,1250 a 170,170 0,1,0 340,0 a 170,170 0,1,0 -340,0 m 20,0 a 150,150 0,1,1 300,0 a 150,150 0,1,1 -300,0 Z M 320,770 a 170,170 0,1,0 340,0 a 170,170 0,1,0 -340,0 m 20,0 a 150,150 0,1,1 300,0 a 150,150 0,1,1 -300,0 Z M 320,290 a 170,170 0,1,0 340,0 a 170,170 0,1,0 -340,0 m 20,0 a 150,150 0,1,1 300,0 a 150,150 0,1,1 -300,0 Z M 810,1250 a 170,170 0,1,0 340,0 a 170,170 0,1,0 -340,0 m 20,0 a 150,150 0,1,1 300,0 a 150,150 0,1,1 -300,0 Z M 810,770 a 170,170 0,1,0 340,0 a 170,170 0,1,0 -340,0 m 20,0 a 150,150 0,1,1 300,0 a 150,150 0,1,1 -300,0 Z M 810,290 a 170,170 0,1,0 340,0 a 170,170 0,1,0 -340,0 Z M 320,-190 a 170,170 0,1,0 340,0 a 170,170 0,1,0 -340,0 Z M 810,-190 a 170,170 0,1,0 340,0 a 170,170 0,1,0 -340,0 m 20,0 a 150,150 0,1,1 300,0 a 150,150 0,1,1 -300,0 Z " />
      <glyph
        glyph-name="uni2861"
        unicode="&#x2861;"
        horiz-adv-x="1470"
        d="M 320,1250 a 170,170 0,1,0 340,0 a 170,170 0,1,0 -340,0 Z M 320,770 a 170,170 0,1,0 340,0 a 170,170 0,1,0 -340,0 m 20,0 a 150,150 0,1,1 300,0 a 150,150 0,1,1 -300,0 Z M 320,290 a 170,170 0,1,0 340,0 a 170,170 0,1,0 -340,0 m 20,0 a 150,150 0,1,1 300,0 a 150,150 0,1,1 -300,0 Z M 810,1250 a 170,170 0,1,0 340,0 a 170,170 0,1,0 -340,0 m 20,0 a 150,150 0,1,1 300,0 a 150,150 0,1,1 -300,0 Z M 810,770 a 170,170 0,1,0 340,0 a 170,170 0,1,0 -340,0 m 20,0 a 150,150 0,1,1 300,0 a 150,150 0,1,1 -300,0 Z M 810,290 a 170,170 0,1,0 340,0 a 170,170 0,1,0 -340,0 Z M 320,-190 a 170,170 0,1,0 340,0 a 170,170 0,1,0 -340,0 Z M 810,-190 a 170,170 0,1,0 340,0 a 170,170 0,1,0 -340,0 m 20,0 a 150,150 0,1,1 300,0 a 150,150 0,1,1 -300,0 Z " />
      <glyph
        glyph-name="uni2862"
        unicode="&#x2862;"
        horiz-adv-x="1470"
        d="M 320,1250 a 170,170 0,1,0 340,0 a 170,170 0,1,0 -340,0 m 20,0 a 150,150 0,1,1 300,0 a 150,150 0,1,1 -300,0 Z M 320,770 a 170,170 0,1,0 340,0 a 170,170 0,1,0 -340,0 Z M 320,290 a 170,170 0,1,0 340,0 a 170,170 0,1,0 -340,0 m 20,0 a 150,150 0,1,1 300,0 a 150,150 0,1,1 -300,0 Z M 810,1250 a 170,170 0,1,0 340,0 a 170,170 0,1,0 -340,0 m 20,0 a 150,150 0,1,1 300,0 a 150,150 0,1,1 -300,0 Z M 810,770 a 170,170 0,1,0 340,0 a 170,170 0,1,0 -340,0 m 20,0 a 150,150 0,1,1 300,0 a 150,150 0,1,1 -300,0 Z M 810,290 a 170,170 0,1,0 340,0 a 170,170 0,1,0 -340,0 Z M 320,-190 a 170,170 0,1,0 340,0 a 170,170 0,1,0 -340,0 Z M 810,-190 a 170,170 0,1,0 340,0 a 170,170 0,1,0 -340,0 m 20,0 a 150,150 0,1,1 300,0 a 150,150 0,1,1 -300,0 Z " />
      <glyph
        glyph-name="uni2863"
        unicode="&#x2863;"
        horiz-adv-x="1470"
        d="M 320,1250 a 170,170 0,1,0 340,0 a 170,170 0,1,0 -340,0 Z M 320,770 a 170,170 0,1,0 340,0 a 170,170 0,1,0 -340,0 Z M 320,290 a 170,170 0,1,0 340,0 a 170,170 0,1,0 -340,0 m 20,0 a 150,150 0,1,1 300,0 a 150,150 0,1,1 -300,0 Z M 810,1250 a 170,170 0,1,0 340,0 a 170,170 0,1,0 -340,0 m 20,0 a 150,150 0,1,1 300,0 a 150,150 0,1,1 -300,0 Z M 810,770 a 170,170 0,1,0 340,0 a 170,170 0,1,0 -340,0 m 20,0 a 150,150 0,1,1 300,0 a 150,150 0,1,1 -300,0 Z M 810,290 a 170,170 0,1,0 340,0 a 170,170 0,1,0 -340,0 Z M 320,-190 a 170,170 0,1,0 340,0 a 170,170 0,1,0 -340,0 Z M 810,-190 a 170,170 0,1,0 340,0 a 170,170 0,1,0 -340,0 m 20,0 a 150,150 0,1,1 300,0 a 150,150 0,1,1 -300,0 Z " />
      <glyph
        glyph-name="uni2864"
        unicode="&#x2864;"
        horiz-adv-x="1470"
        d="M 320,1250 a 170,170 0,1,0 340,0 a 170,170 0,1,0 -340,0 m 20,0 a 150,150 0,1,1 300,0 a 150,150 0,1,1 -300,0 Z M 320,770 a 170,170 0,1,0 340,0 a 170,170 0,1,0 -340,0 m 20,0 a 150,150 0,1,1 300,0 a 150,150 0,1,1 -300,0 Z M 320,290 a 170,170 0,1,0 340,0 a 170,170 0,1,0 -340,0 Z M 810,1250 a 170,170 0,1,0 340,0 a 170,170 0,1,0 -340,0 m 20,0 a 150,150 0,1,1 300,0 a 150,150 0,1,1 -300,0 Z M 810,770 a 170,170 0,1,0 340,0 a 170,170 0,1,0 -340,0 m 20,0 a 150,150 0,1,1 300,0 a 150,150 0,1,1 -300,0 Z M 810,290 a 170,170 0,1,0 340,0 a 170,170 0,1,0 -340,0 Z M 320,-190 a 170,170 0,1,0 340,0 a 170,170 0,1,0 -340,0 Z M 810,-190 a 170,170 0,1,0 340,0 a 170,170 0,1,0 -340,0 m 20,0 a 150,150 0,1,1 300,0 a 150,150 0,1,1 -300,0 Z " />
      <glyph
        glyph-name="uni2865"
        unicode="&#x2865;"
        horiz-adv-x="1470"
        d="M 320,1250 a 170,170 0,1,0 340,0 a 170,170 0,1,0 -340,0 Z M 320,770 a 170,170 0,1,0 340,0 a 170,170 0,1,0 -340,0 m 20,0 a 150,150 0,1,1 300,0 a 150,150 0,1,1 -300,0 Z M 320,290 a 170,170 0,1,0 340,0 a 170,170 0,1,0 -340,0 Z M 810,1250 a 170,170 0,1,0 340,0 a 170,170 0,1,0 -340,0 m 20,0 a 150,150 0,1,1 300,0 a 150,150 0,1,1 -300,0 Z M 810,770 a 170,170 0,1,0 340,0 a 170,170 0,1,0 -340,0 m 20,0 a 150,150 0,1,1 300,0 a 150,150 0,1,1 -300,0 Z M 810,290 a 170,170 0,1,0 340,0 a 170,170 0,1,0 -340,0 Z M 320,-190 a 170,170 0,1,0 340,0 a 170,170 0,1,0 -340,0 Z M 810,-190 a 170,170 0,1,0 340,0 a 170,170 0,1,0 -340,0 m 20,0 a 150,150 0,1,1 300,0 a 150,150 0,1,1 -300,0 Z " />
      <glyph
        glyph-name="uni2866"
        unicode="&#x2866;"
        horiz-adv-x="1470"
        d="M 320,1250 a 170,170 0,1,0 340,0 a 170,170 0,1,0 -340,0 m 20,0 a 150,150 0,1,1 300,0 a 150,150 0,1,1 -300,0 Z M 320,770 a 170,170 0,1,0 340,0 a 170,170 0,1,0 -340,0 Z M 320,290 a 170,170 0,1,0 340,0 a 170,170 0,1,0 -340,0 Z M 810,1250 a 170,170 0,1,0 340,0 a 170,170 0,1,0 -340,0 m 20,0 a 150,150 0,1,1 300,0 a 150,150 0,1,1 -300,0 Z M 810,770 a 170,170 0,1,0 340,0 a 170,170 0,1,0 -340,0 m 20,0 a 150,150 0,1,1 300,0 a 150,150 0,1,1 -300,0 Z M 810,290 a 170,170 0,1,0 340,0 a 170,170 0,1,0 -340,0 Z M 320,-190 a 170,170 0,1,0 340,0 a 170,170 0,1,0 -340,0 Z M 810,-190 a 170,170 0,1,0 340,0 a 170,170 0,1,0 -340,0 m 20,0 a 150,150 0,1,1 300,0 a 150,150 0,1,1 -300,0 Z " />
      <glyph
        glyph-name="uni2867"
        unicode="&#x2867;"
        horiz-adv-x="1470"
        d="M 320,1250 a 170,170 0,1,0 340,0 a 170,170 0,1,0 -340,0 Z M 320,770 a 170,170 0,1,0 340,0 a 170,170 0,1,0 -340,0 Z M 320,290 a 170,170 0,1,0 340,0 a 170,170 0,1,0 -340,0 Z M 810,1250 a 170,170 0,1,0 340,0 a 170,170 0,1,0 -340,0 m 20,0 a 150,150 0,1,1 300,0 a 150,150 0,1,1 -300,0 Z M 810,770 a 170,170 0,1,0 340,0 a 170,170 0,1,0 -340,0 m 20,0 a 150,150 0,1,1 300,0 a 150,150 0,1,1 -300,0 Z M 810,290 a 170,170 0,1,0 340,0 a 170,170 0,1,0 -340,0 Z M 320,-190 a 170,170 0,1,0 340,0 a 170,170 0,1,0 -340,0 Z M 810,-190 a 170,170 0,1,0 340,0 a 170,170 0,1,0 -340,0 m 20,0 a 150,150 0,1,1 300,0 a 150,150 0,1,1 -300,0 Z " />
      <glyph
        glyph-name="uni2868"
        unicode="&#x2868;"
        horiz-adv-x="1470"
        d="M 320,1250 a 170,170 0,1,0 340,0 a 170,170 0,1,0 -340,0 m 20,0 a 150,150 0,1,1 300,0 a 150,150 0,1,1 -300,0 Z M 320,770 a 170,170 0,1,0 340,0 a 170,170 0,1,0 -340,0 m 20,0 a 150,150 0,1,1 300,0 a 150,150 0,1,1 -300,0 Z M 320,290 a 170,170 0,1,0 340,0 a 170,170 0,1,0 -340,0 m 20,0 a 150,150 0,1,1 300,0 a 150,150 0,1,1 -300,0 Z M 810,1250 a 170,170 0,1,0 340,0 a 170,170 0,1,0 -340,0 Z M 810,770 a 170,170 0,1,0 340,0 a 170,170 0,1,0 -340,0 m 20,0 a 150,150 0,1,1 300,0 a 150,150 0,1,1 -300,0 Z M 810,290 a 170,170 0,1,0 340,0 a 170,170 0,1,0 -340,0 Z M 320,-190 a 170,170 0,1,0 340,0 a 170,170 0,1,0 -340,0 Z M 810,-190 a 170,170 0,1,0 340,0 a 170,170 0,1,0 -340,0 m 20,0 a 150,150 0,1,1 300,0 a 150,150 0,1,1 -300,0 Z " />
      <glyph
        glyph-name="uni2869"
        unicode="&#x2869;"
        horiz-adv-x="1470"
        d="M 320,1250 a 170,170 0,1,0 340,0 a 170,170 0,1,0 -340,0 Z M 320,770 a 170,170 0,1,0 340,0 a 170,170 0,1,0 -340,0 m 20,0 a 150,150 0,1,1 300,0 a 150,150 0,1,1 -300,0 Z M 320,290 a 170,170 0,1,0 340,0 a 170,170 0,1,0 -340,0 m 20,0 a 150,150 0,1,1 300,0 a 150,150 0,1,1 -300,0 Z M 810,1250 a 170,170 0,1,0 340,0 a 170,170 0,1,0 -340,0 Z M 810,770 a 170,170 0,1,0 340,0 a 170,170 0,1,0 -340,0 m 20,0 a 150,150 0,1,1 300,0 a 150,150 0,1,1 -300,0 Z M 810,290 a 170,170 0,1,0 340,0 a 170,170 0,1,0 -340,0 Z M 320,-190 a 170,170 0,1,0 340,0 a 170,170 0,1,0 -340,0 Z M 810,-190 a 170,170 0,1,0 340,0 a 170,170 0,1,0 -340,0 m 20,0 a 150,150 0,1,1 300,0 a 150,150 0,1,1 -300,0 Z " />
      <glyph
        glyph-name="uni286A"
        unicode="&#x286a;"
        horiz-adv-x="1470"
        d="M 320,1250 a 170,170 0,1,0 340,0 a 170,170 0,1,0 -340,0 m 20,0 a 150,150 0,1,1 300,0 a 150,150 0,1,1 -300,0 Z M 320,770 a 170,170 0,1,0 340,0 a 170,170 0,1,0 -340,0 Z M 320,290 a 170,170 0,1,0 340,0 a 170,170 0,1,0 -340,0 m 20,0 a 150,150 0,1,1 300,0 a 150,150 0,1,1 -300,0 Z M 810,1250 a 170,170 0,1,0 340,0 a 170,170 0,1,0 -340,0 Z M 810,770 a 170,170 0,1,0 340,0 a 170,170 0,1,0 -340,0 m 20,0 a 150,150 0,1,1 300,0 a 150,150 0,1,1 -300,0 Z M 810,290 a 170,170 0,1,0 340,0 a 170,170 0,1,0 -340,0 Z M 320,-190 a 170,170 0,1,0 340,0 a 170,170 0,1,0 -340,0 Z M 810,-190 a 170,170 0,1,0 340,0 a 170,170 0,1,0 -340,0 m 20,0 a 150,150 0,1,1 300,0 a 150,150 0,1,1 -300,0 Z " />
      <glyph
        glyph-name="uni286B"
        unicode="&#x286b;"
        horiz-adv-x="1470"
        d="M 320,1250 a 170,170 0,1,0 340,0 a 170,170 0,1,0 -340,0 Z M 320,770 a 170,170 0,1,0 340,0 a 170,170 0,1,0 -340,0 Z M 320,290 a 170,170 0,1,0 340,0 a 170,170 0,1,0 -340,0 m 20,0 a 150,150 0,1,1 300,0 a 150,150 0,1,1 -300,0 Z M 810,1250 a 170,170 0,1,0 340,0 a 170,170 0,1,0 -340,0 Z M 810,770 a 170,170 0,1,0 340,0 a 170,170 0,1,0 -340,0 m 20,0 a 150,150 0,1,1 300,0 a 150,150 0,1,1 -300,0 Z M 810,290 a 170,170 0,1,0 340,0 a 170,170 0,1,0 -340,0 Z M 320,-190 a 170,170 0,1,0 340,0 a 170,170 0,1,0 -340,0 Z M 810,-190 a 170,170 0,1,0 340,0 a 170,170 0,1,0 -340,0 m 20,0 a 150,150 0,1,1 300,0 a 150,150 0,1,1 -300,0 Z " />
      <glyph
        glyph-name="uni286C"
        unicode="&#x286c;"
        horiz-adv-x="1470"
        d="M 320,1250 a 170,170 0,1,0 340,0 a 170,170 0,1,0 -340,0 m 20,0 a 150,150 0,1,1 300,0 a 150,150 0,1,1 -300,0 Z M 320,770 a 170,170 0,1,0 340,0 a 170,170 0,1,0 -340,0 m 20,0 a 150,150 0,1,1 300,0 a 150,150 0,1,1 -300,0 Z M 320,290 a 170,170 0,1,0 340,0 a 170,170 0,1,0 -340,0 Z M 810,1250 a 170,170 0,1,0 340,0 a 170,170 0,1,0 -340,0 Z M 810,770 a 170,170 0,1,0 340,0 a 170,170 0,1,0 -340,0 m 20,0 a 150,150 0,1,1 300,0 a 150,150 0,1,1 -300,0 Z M 810,290 a 170,170 0,1,0 340,0 a 170,170 0,1,0 -340,0 Z M 320,-190 a 170,170 0,1,0 340,0 a 170,170 0,1,0 -340,0 Z M 810,-190 a 170,170 0,1,0 340,0 a 170,170 0,1,0 -340,0 m 20,0 a 150,150 0,1,1 300,0 a 150,150 0,1,1 -300,0 Z " />
      <glyph
        glyph-name="uni286D"
        unicode="&#x286d;"
        horiz-adv-x="1470"
        d="M 320,1250 a 170,170 0,1,0 340,0 a 170,170 0,1,0 -340,0 Z M 320,770 a 170,170 0,1,0 340,0 a 170,170 0,1,0 -340,0 m 20,0 a 150,150 0,1,1 300,0 a 150,150 0,1,1 -300,0 Z M 320,290 a 170,170 0,1,0 340,0 a 170,170 0,1,0 -340,0 Z M 810,1250 a 170,170 0,1,0 340,0 a 170,170 0,1,0 -340,0 Z M 810,770 a 170,170 0,1,0 340,0 a 170,170 0,1,0 -340,0 m 20,0 a 150,150 0,1,1 300,0 a 150,150 0,1,1 -300,0 Z M 810,290 a 170,170 0,1,0 340,0 a 170,170 0,1,0 -340,0 Z M 320,-190 a 170,170 0,1,0 340,0 a 170,170 0,1,0 -340,0 Z M 810,-190 a 170,170 0,1,0 340,0 a 170,170 0,1,0 -340,0 m 20,0 a 150,150 0,1,1 300,0 a 150,150 0,1,1 -300,0 Z " />
      <glyph
        glyph-name="uni286E"
        unicode="&#x286e;"
        horiz-adv-x="1470"
        d="M 320,1250 a 170,170 0,1,0 340,0 a 170,170 0,1,0 -340,0 m 20,0 a 150,150 0,1,1 300,0 a 150,150 0,1,1 -300,0 Z M 320,770 a 170,170 0,1,0 340,0 a 170,170 0,1,0 -340,0 Z M 320,290 a 170,170 0,1,0 340,0 a 170,170 0,1,0 -340,0 Z M 810,1250 a 170,170 0,1,0 340,0 a 170,170 0,1,0 -340,0 Z M 810,770 a 170,170 0,1,0 340,0 a 170,170 0,1,0 -340,0 m 20,0 a 150,150 0,1,1 300,0 a 150,150 0,1,1 -300,0 Z M 810,290 a 170,170 0,1,0 340,0 a 170,170 0,1,0 -340,0 Z M 320,-190 a 170,170 0,1,0 340,0 a 170,170 0,1,0 -340,0 Z M 810,-190 a 170,170 0,1,0 340,0 a 170,170 0,1,0 -340,0 m 20,0 a 150,150 0,1,1 300,0 a 150,150 0,1,1 -300,0 Z " />
      <glyph
        glyph-name="uni286F"
        unicode="&#x286f;"
        horiz-adv-x="1470"
        d="M 320,1250 a 170,170 0,1,0 340,0 a 170,170 0,1,0 -340,0 Z M 320,770 a 170,170 0,1,0 340,0 a 170,170 0,1,0 -340,0 Z M 320,290 a 170,170 0,1,0 340,0 a 170,170 0,1,0 -340,0 Z M 810,1250 a 170,170 0,1,0 340,0 a 170,170 0,1,0 -340,0 Z M 810,770 a 170,170 0,1,0 340,0 a 170,170 0,1,0 -340,0 m 20,0 a 150,150 0,1,1 300,0 a 150,150 0,1,1 -300,0 Z M 810,290 a 170,170 0,1,0 340,0 a 170,170 0,1,0 -340,0 Z M 320,-190 a 170,170 0,1,0 340,0 a 170,170 0,1,0 -340,0 Z M 810,-190 a 170,170 0,1,0 340,0 a 170,170 0,1,0 -340,0 m 20,0 a 150,150 0,1,1 300,0 a 150,150 0,1,1 -300,0 Z " />
      <glyph
        glyph-name="uni2870"
        unicode="&#x2870;"
        horiz-adv-x="1470"
        d="M 320,1250 a 170,170 0,1,0 340,0 a 170,170 0,1,0 -340,0 m 20,0 a 150,150 0,1,1 300,0 a 150,150 0,1,1 -300,0 Z M 320,770 a 170,170 0,1,0 340,0 a 170,170 0,1,0 -340,0 m 20,0 a 150,150 0,1,1 300,0 a 150,150 0,1,1 -300,0 Z M 320,290 a 170,170 0,1,0 340,0 a 170,170 0,1,0 -340,0 m 20,0 a 150,150 0,1,1 300,0 a 150,150 0,1,1 -300,0 Z M 810,1250 a 170,170 0,1,0 340,0 a 170,170 0,1,0 -340,0 m 20,0 a 150,150 0,1,1 300,0 a 150,150 0,1,1 -300,0 Z M 810,770 a 170,170 0,1,0 340,0 a 170,170 0,1,0 -340,0 Z M 810,290 a 170,170 0,1,0 340,0 a 170,170 0,1,0 -340,0 Z M 320,-190 a 170,170 0,1,0 340,0 a 170,170 0,1,0 -340,0 Z M 810,-190 a 170,170 0,1,0 340,0 a 170,170 0,1,0 -340,0 m 20,0 a 150,150 0,1,1 300,0 a 150,150 0,1,1 -300,0 Z " />
      <glyph
        glyph-name="uni2871"
        unicode="&#x2871;"
        horiz-adv-x="1470"
        d="M 320,1250 a 170,170 0,1,0 340,0 a 170,170 0,1,0 -340,0 Z M 320,770 a 170,170 0,1,0 340,0 a 170,170 0,1,0 -340,0 m 20,0 a 150,150 0,1,1 300,0 a 150,150 0,1,1 -300,0 Z M 320,290 a 170,170 0,1,0 340,0 a 170,170 0,1,0 -340,0 m 20,0 a 150,150 0,1,1 300,0 a 150,150 0,1,1 -300,0 Z M 810,1250 a 170,170 0,1,0 340,0 a 170,170 0,1,0 -340,0 m 20,0 a 150,150 0,1,1 300,0 a 150,150 0,1,1 -300,0 Z M 810,770 a 170,170 0,1,0 340,0 a 170,170 0,1,0 -340,0 Z M 810,290 a 170,170 0,1,0 340,0 a 170,170 0,1,0 -340,0 Z M 320,-190 a 170,170 0,1,0 340,0 a 170,170 0,1,0 -340,0 Z M 810,-190 a 170,170 0,1,0 340,0 a 170,170 0,1,0 -340,0 m 20,0 a 150,150 0,1,1 300,0 a 150,150 0,1,1 -300,0 Z " />
      <glyph
        glyph-name="uni2872"
        unicode="&#x2872;"
        horiz-adv-x="1470"
        d="M 320,1250 a 170,170 0,1,0 340,0 a 170,170 0,1,0 -340,0 m 20,0 a 150,150 0,1,1 300,0 a 150,150 0,1,1 -300,0 Z M 320,770 a 170,170 0,1,0 340,0 a 170,170 0,1,0 -340,0 Z M 320,290 a 170,170 0,1,0 340,0 a 170,170 0,1,0 -340,0 m 20,0 a 150,150 0,1,1 300,0 a 150,150 0,1,1 -300,0 Z M 810,1250 a 170,170 0,1,0 340,0 a 170,170 0,1,0 -340,0 m 20,0 a 150,150 0,1,1 300,0 a 150,150 0,1,1 -300,0 Z M 810,770 a 170,170 0,1,0 340,0 a 170,170 0,1,0 -340,0 Z M 810,290 a 170,170 0,1,0 340,0 a 170,170 0,1,0 -340,0 Z M 320,-190 a 170,170 0,1,0 340,0 a 170,170 0,1,0 -340,0 Z M 810,-190 a 170,170 0,1,0 340,0 a 170,170 0,1,0 -340,0 m 20,0 a 150,150 0,1,1 300,0 a 150,150 0,1,1 -300,0 Z " />
      <glyph
        glyph-name="uni2873"
        unicode="&#x2873;"
        horiz-adv-x="1470"
        d="M 320,1250 a 170,170 0,1,0 340,0 a 170,170 0,1,0 -340,0 Z M 320,770 a 170,170 0,1,0 340,0 a 170,170 0,1,0 -340,0 Z M 320,290 a 170,170 0,1,0 340,0 a 170,170 0,1,0 -340,0 m 20,0 a 150,150 0,1,1 300,0 a 150,150 0,1,1 -300,0 Z M 810,1250 a 170,170 0,1,0 340,0 a 170,170 0,1,0 -340,0 m 20,0 a 150,150 0,1,1 300,0 a 150,150 0,1,1 -300,0 Z M 810,770 a 170,170 0,1,0 340,0 a 170,170 0,1,0 -340,0 Z M 810,290 a 170,170 0,1,0 340,0 a 170,170 0,1,0 -340,0 Z M 320,-190 a 170,170 0,1,0 340,0 a 170,170 0,1,0 -340,0 Z M 810,-190 a 170,170 0,1,0 340,0 a 170,170 0,1,0 -340,0 m 20,0 a 150,150 0,1,1 300,0 a 150,150 0,1,1 -300,0 Z " />
      <glyph
        glyph-name="uni2874"
        unicode="&#x2874;"
        horiz-adv-x="1470"
        d="M 320,1250 a 170,170 0,1,0 340,0 a 170,170 0,1,0 -340,0 m 20,0 a 150,150 0,1,1 300,0 a 150,150 0,1,1 -300,0 Z M 320,770 a 170,170 0,1,0 340,0 a 170,170 0,1,0 -340,0 m 20,0 a 150,150 0,1,1 300,0 a 150,150 0,1,1 -300,0 Z M 320,290 a 170,170 0,1,0 340,0 a 170,170 0,1,0 -340,0 Z M 810,1250 a 170,170 0,1,0 340,0 a 170,170 0,1,0 -340,0 m 20,0 a 150,150 0,1,1 300,0 a 150,150 0,1,1 -300,0 Z M 810,770 a 170,170 0,1,0 340,0 a 170,170 0,1,0 -340,0 Z M 810,290 a 170,170 0,1,0 340,0 a 170,170 0,1,0 -340,0 Z M 320,-190 a 170,170 0,1,0 340,0 a 170,170 0,1,0 -340,0 Z M 810,-190 a 170,170 0,1,0 340,0 a 170,170 0,1,0 -340,0 m 20,0 a 150,150 0,1,1 300,0 a 150,150 0,1,1 -300,0 Z " />
      <glyph
        glyph-name="uni2875"
        unicode="&#x2875;"
        horiz-adv-x="1470"
        d="M 320,1250 a 170,170 0,1,0 340,0 a 170,170 0,1,0 -340,0 Z M 320,770 a 170,170 0,1,0 340,0 a 170,170 0,1,0 -340,0 m 20,0 a 150,150 0,1,1 300,0 a 150,150 0,1,1 -300,0 Z M 320,290 a 170,170 0,1,0 340,0 a 170,170 0,1,0 -340,0 Z M 810,1250 a 170,170 0,1,0 340,0 a 170,170 0,1,0 -340,0 m 20,0 a 150,150 0,1,1 300,0 a 150,150 0,1,1 -300,0 Z M 810,770 a 170,170 0,1,0 340,0 a 170,170 0,1,0 -340,0 Z M 810,290 a 170,170 0,1,0 340,0 a 170,170 0,1,0 -340,0 Z M 320,-190 a 170,170 0,1,0 340,0 a 170,170 0,1,0 -340,0 Z M 810,-190 a 170,170 0,1,0 340,0 a 170,170 0,1,0 -340,0 m 20,0 a 150,150 0,1,1 300,0 a 150,150 0,1,1 -300,0 Z " />
      <glyph
        glyph-name="uni2876"
        unicode="&#x2876;"
        horiz-adv-x="1470"
        d="M 320,1250 a 170,170 0,1,0 340,0 a 170,170 0,1,0 -340,0 m 20,0 a 150,150 0,1,1 300,0 a 150,150 0,1,1 -300,0 Z M 320,770 a 170,170 0,1,0 340,0 a 170,170 0,1,0 -340,0 Z M 320,290 a 170,170 0,1,0 340,0 a 170,170 0,1,0 -340,0 Z M 810,1250 a 170,170 0,1,0 340,0 a 170,170 0,1,0 -340,0 m 20,0 a 150,150 0,1,1 300,0 a 150,150 0,1,1 -300,0 Z M 810,770 a 170,170 0,1,0 340,0 a 170,170 0,1,0 -340,0 Z M 810,290 a 170,170 0,1,0 340,0 a 170,170 0,1,0 -340,0 Z M 320,-190 a 170,170 0,1,0 340,0 a 170,170 0,1,0 -340,0 Z M 810,-190 a 170,170 0,1,0 340,0 a 170,170 0,1,0 -340,0 m 20,0 a 150,150 0,1,1 300,0 a 150,150 0,1,1 -300,0 Z " />
      <glyph
        glyph-name="uni2877"
        unicode="&#x2877;"
        horiz-adv-x="1470"
        d="M 320,1250 a 170,170 0,1,0 340,0 a 170,170 0,1,0 -340,0 Z M 320,770 a 170,170 0,1,0 340,0 a 170,170 0,1,0 -340,0 Z M 320,290 a 170,170 0,1,0 340,0 a 170,170 0,1,0 -340,0 Z M 810,1250 a 170,170 0,1,0 340,0 a 170,170 0,1,0 -340,0 m 20,0 a 150,150 0,1,1 300,0 a 150,150 0,1,1 -300,0 Z M 810,770 a 170,170 0,1,0 340,0 a 170,170 0,1,0 -340,0 Z M 810,290 a 170,170 0,1,0 340,0 a 170,170 0,1,0 -340,0 Z M 320,-190 a 170,170 0,1,0 340,0 a 170,170 0,1,0 -340,0 Z M 810,-190 a 170,170 0,1,0 340,0 a 170,170 0,1,0 -340,0 m 20,0 a 150,150 0,1,1 300,0 a 150,150 0,1,1 -300,0 Z " />
      <glyph
        glyph-name="uni2878"
        unicode="&#x2878;"
        horiz-adv-x="1470"
        d="M 320,1250 a 170,170 0,1,0 340,0 a 170,170 0,1,0 -340,0 m 20,0 a 150,150 0,1,1 300,0 a 150,150 0,1,1 -300,0 Z M 320,770 a 170,170 0,1,0 340,0 a 170,170 0,1,0 -340,0 m 20,0 a 150,150 0,1,1 300,0 a 150,150 0,1,1 -300,0 Z M 320,290 a 170,170 0,1,0 340,0 a 170,170 0,1,0 -340,0 m 20,0 a 150,150 0,1,1 300,0 a 150,150 0,1,1 -300,0 Z M 810,1250 a 170,170 0,1,0 340,0 a 170,170 0,1,0 -340,0 Z M 810,770 a 170,170 0,1,0 340,0 a 170,170 0,1,0 -340,0 Z M 810,290 a 170,170 0,1,0 340,0 a 170,170 0,1,0 -340,0 Z M 320,-190 a 170,170 0,1,0 340,0 a 170,170 0,1,0 -340,0 Z M 810,-190 a 170,170 0,1,0 340,0 a 170,170 0,1,0 -340,0 m 20,0 a 150,150 0,1,1 300,0 a 150,150 0,1,1 -300,0 Z " />
      <glyph
        glyph-name="uni2879"
        unicode="&#x2879;"
        horiz-adv-x="1470"
        d="M 320,1250 a 170,170 0,1,0 340,0 a 170,170 0,1,0 -340,0 Z M 320,770 a 170,170 0,1,0 340,0 a 170,170 0,1,0 -340,0 m 20,0 a 150,150 0,1,1 300,0 a 150,150 0,1,1 -300,0 Z M 320,290 a 170,170 0,1,0 340,0 a 170,170 0,1,0 -340,0 m 20,0 a 150,150 0,1,1 300,0 a 150,150 0,1,1 -300,0 Z M 810,1250 a 170,170 0,1,0 340,0 a 170,170 0,1,0 -340,0 Z M 810,770 a 170,170 0,1,0 340,0 a 170,170 0,1,0 -340,0 Z M 810,290 a 170,170 0,1,0 340,0 a 170,170 0,1,0 -340,0 Z M 320,-190 a 170,170 0,1,0 340,0 a 170,170 0,1,0 -340,0 Z M 810,-190 a 170,170 0,1,0 340,0 a 170,170 0,1,0 -340,0 m 20,0 a 150,150 0,1,1 300,0 a 150,150 0,1,1 -300,0 Z " />
      </font>
</defs>
</svg>
